<svg width="377" height="116" viewBox="0 0 377 116" fill="none" xmlns="http://www.w3.org/2000/svg">
<g clip-path="url(#clip0_24_275)">
<g style="mix-blend-mode:multiply" opacity="0.75">
<path d="M319.855 51.5356H57.2218C51.1327 51.5356 46.1965 56.4688 46.1965 62.5541V63.4961C46.1965 69.5814 51.1327 74.5145 57.2218 74.5145H319.855C325.944 74.5145 330.88 69.5814 330.88 63.4961V62.5541C330.88 56.4688 325.944 51.5356 319.855 51.5356Z" fill="black"/>
</g>
<path d="M318.036 2.44482H61.818C47.7335 2.44482 36.3157 13.8555 36.3157 27.9312V31.3969C36.3157 45.4727 47.7335 56.8833 61.818 56.8833H318.036C332.121 56.8833 343.539 45.4727 343.539 31.3969V27.9312C343.539 13.8555 332.121 2.44482 318.036 2.44482Z" fill="white"/>
<path d="M27.6904 0H349.31C364.592 0 377 12.4003 377 27.6731V88.3289C377 103.602 364.592 116.002 349.31 116.002H27.6904C12.408 116 0 103.602 0 88.3269V27.6731C0 12.4003 12.408 0 27.6904 0Z" fill="#F0F5F7"/>
<path d="M148.484 29.6641C152.657 29.6641 155.121 32.2644 155.121 36.6863C155.121 41.1082 152.665 43.7186 148.484 43.7186H143.757V29.6621H148.484V29.6641ZM145.511 42.141H148.367C151.555 42.141 153.329 40.1923 153.329 36.7065C153.329 33.2206 151.565 31.2416 148.367 31.2416H145.511V42.141Z" fill="#333333"/>
<path d="M157.533 38.655C157.533 35.4213 159.425 33.4141 162.231 33.4141C165.036 33.4141 166.92 35.4213 166.92 38.655C166.92 41.8887 165.028 43.8959 162.231 43.8959C159.433 43.8959 157.533 41.8786 157.533 38.655ZM165.194 38.655C165.194 36.2685 164.025 34.9048 162.231 34.9048C160.436 34.9048 159.257 36.2685 159.257 38.655C159.257 41.0414 160.436 42.4051 162.231 42.4051C164.025 42.4051 165.194 41.0414 165.194 38.655Z" fill="#333333"/>
<path d="M179.691 43.7207H177.965L175.674 35.8795H175.636L173.355 43.7207H171.629L168.793 33.5898H170.478L172.505 41.8305H172.543L174.834 33.5898H176.471L178.773 41.8305H178.811L180.838 33.5898H182.515L179.689 43.7207H179.691Z" fill="#333333"/>
<path d="M184.899 33.59H186.498V35.2079H186.536C187.101 34.1165 188.183 33.4165 189.751 33.4165C191.974 33.4165 193.26 34.8488 193.26 37.1465V43.7208H191.564V37.447C191.564 35.811 190.793 34.9153 189.235 34.9153C187.676 34.9153 186.592 36.045 186.592 37.7597V43.7208H184.897V33.59H184.899Z" fill="#333333"/>
<path d="M196.502 29.6641H198.197V43.7205H196.502V29.6641Z" fill="#333333"/>
<path d="M200.989 38.655C200.989 35.4213 202.88 33.4141 205.686 33.4141C208.492 33.4141 210.375 35.4213 210.375 38.655C210.375 41.8887 208.484 43.8959 205.686 43.8959C202.888 43.8959 200.989 41.8786 200.989 38.655ZM208.649 38.655C208.649 36.2685 207.48 34.9048 205.686 34.9048C203.891 34.9048 202.713 36.2685 202.713 38.655C202.713 41.0414 203.891 42.4051 205.686 42.4051C207.48 42.4051 208.649 41.0414 208.649 38.655Z" fill="#333333"/>
<path d="M212.67 40.8558C212.67 39.121 214.006 38.0316 216.344 37.8945L219.249 37.729V36.8818C219.249 35.6452 218.429 34.9048 217.026 34.9048C215.72 34.9048 214.901 35.5181 214.687 36.5126H213.05C213.167 34.7596 214.668 33.4141 217.064 33.4141C219.46 33.4141 220.944 34.6991 220.944 36.7164V43.7204H219.335V41.9774H219.297C218.693 43.1374 217.406 43.8959 216.041 43.8959C214.023 43.8959 212.668 42.6774 212.668 40.8558H212.67ZM219.249 39.8714V39.0443L216.54 39.2097C215.175 39.2965 214.396 39.9017 214.396 40.8558C214.396 41.81 215.205 42.4535 216.423 42.4535C218.021 42.4535 219.249 41.3339 219.249 39.8714Z" fill="#333333"/>
<path d="M223.598 38.6551C223.598 35.4799 225.343 33.4142 227.896 33.4142C229.347 33.4142 230.518 34.1243 231.122 35.2358H231.16V29.6641H232.856V43.7205H231.237V42.0058H231.208C230.554 43.1738 229.396 43.896 227.934 43.896C225.351 43.896 223.596 41.8303 223.596 38.6551H223.598ZM225.334 38.6551C225.334 40.9548 226.465 42.4052 228.259 42.4052C230.054 42.4052 231.174 40.9246 231.174 38.6551C231.174 36.3857 230.005 34.905 228.259 34.905C226.513 34.905 225.334 36.3655 225.334 38.6551Z" fill="#333333"/>
<path d="M240.742 38.655C240.742 35.4213 242.633 33.4141 245.439 33.4141C248.245 33.4141 250.128 35.4213 250.128 38.655C250.128 41.8887 248.237 43.8959 245.439 43.8959C242.641 43.8959 240.742 41.8786 240.742 38.655ZM248.402 38.655C248.402 36.2685 247.234 34.9048 245.439 34.9048C243.645 34.9048 242.466 36.2685 242.466 38.655C242.466 41.0414 243.645 42.4051 245.439 42.4051C247.234 42.4051 248.402 41.0414 248.402 38.655Z" fill="#333333"/>
<path d="M252.831 33.59H254.43V35.2079H254.468C255.033 34.1165 256.115 33.4165 257.684 33.4165C259.906 33.4165 261.192 34.8488 261.192 37.1465V43.7208H259.496V37.447C259.496 35.811 258.725 34.9153 257.167 34.9153C255.609 34.9153 254.525 36.045 254.525 37.7597V43.7208H252.829V33.59H252.831Z" fill="#333333"/>
<path d="M271.68 31.145V33.59H273.648V34.9839H271.68V41.0035C271.68 41.9294 272.07 42.347 272.938 42.347C273.134 42.347 273.523 42.3167 273.64 42.2986V43.7208C273.436 43.7692 272.968 43.7995 272.568 43.7995C270.707 43.7995 269.985 43.0389 269.985 41.0923V34.9839H268.475V33.59H269.985V31.145H271.68Z" fill="#333333"/>
<path d="M276.537 29.6641H278.232V35.2076H278.271C278.836 34.0779 279.948 33.4162 281.486 33.4162C283.709 33.4162 285.053 34.9171 285.053 37.1764V43.7225H283.358V37.4891C283.358 35.8813 282.548 34.9171 280.96 34.9171C279.274 34.9171 278.23 36.0669 278.23 37.8199V43.7225H276.535V29.6661L276.537 29.6641Z" fill="#333333"/>
<path d="M296.599 40.8175C296.307 42.5907 294.591 43.8959 292.378 43.8959C289.474 43.8959 287.71 41.8786 287.71 38.6933C287.71 35.508 289.502 33.4141 292.3 33.4141C295.097 33.4141 296.724 35.4011 296.724 38.4694V39.1129H289.454V39.2097C289.454 41.1483 290.594 42.4233 292.417 42.4233C293.703 42.4233 294.649 41.7717 294.932 40.8155H296.599V40.8175ZM289.466 37.7875H294.972C294.934 36.093 293.87 34.8847 292.271 34.8847C290.673 34.8847 289.571 36.1031 289.464 37.7875H289.466Z" fill="#333333"/>
<path d="M152.487 54.9829H156.875L166.377 81.129H162.116L159.722 74.0624H149.641L147.229 81.129H142.968L152.487 54.9829ZM150.729 70.8004H158.615L154.718 59.312H154.645L150.729 70.8004Z" fill="#333333"/>
<path d="M170.644 62.0676H174.56V65.3477H174.651C175.793 63.0823 177.897 61.7065 180.616 61.7065C185.474 61.7065 188.593 65.5111 188.593 71.5993V71.6175C188.593 77.6875 185.456 81.5102 180.67 81.5102C177.969 81.5102 175.775 80.1324 174.651 77.9235H174.56V87.4733H170.644V62.0697V62.0676ZM184.606 71.6155V71.5973C184.606 67.5385 182.666 65.0573 179.602 65.0573C176.538 65.0573 174.544 67.6293 174.544 71.5973V71.6155C174.544 75.5653 176.647 78.1373 179.602 78.1373C182.557 78.1373 184.606 75.6359 184.606 71.6155Z" fill="#333333"/>
<path d="M193.48 62.0676H197.396V65.3477H197.487C198.629 63.0823 200.732 61.7065 203.451 61.7065C208.31 61.7065 211.429 65.5111 211.429 71.5993V71.6175C211.429 77.6875 208.292 81.5102 203.506 81.5102C200.805 81.5102 198.611 80.1324 197.487 77.9235H197.396V87.4733H193.48V62.0697V62.0676ZM207.44 71.6155V71.5973C207.44 67.5385 205.5 65.0573 202.436 65.0573C199.372 65.0573 197.378 67.6293 197.378 71.5973V71.6155C197.378 75.5653 199.481 78.1373 202.436 78.1373C205.391 78.1373 207.44 75.6359 207.44 71.6155Z" fill="#333333"/>
<path d="M225.005 74.1695L224.987 73.8972H228.94L228.976 74.1332C229.339 76.5438 231.749 78.0467 235.25 78.0467C238.75 78.0467 240.96 76.4712 240.96 74.0243V74.0061C240.96 71.9041 239.527 70.7623 236.065 70.0018L233.219 69.4047C228.088 68.3174 225.605 65.9612 225.605 62.0839V62.0658C225.623 57.6076 229.557 54.5474 235.088 54.5474C240.619 54.5474 244.281 57.5188 244.553 61.9044L244.571 62.213H240.619L240.601 61.9589C240.237 59.5301 238.134 58.0635 235.036 58.0635C231.79 58.0816 229.723 59.6208 229.723 61.9044V61.9226C229.723 63.8793 231.21 65.0756 234.472 65.7816L237.337 66.3787C242.74 67.5205 245.06 69.7133 245.06 73.7539V73.7721C245.06 78.5369 241.289 81.5629 235.088 81.5629C229.214 81.5629 225.334 78.773 225.007 74.1695H225.005Z" fill="#333333"/>
<path d="M251.196 76.1099V65.1843H248.459V62.0676H251.196V57.103H255.203V62.0676H258.774V65.1843H255.203V75.8739C255.203 77.8125 256.073 78.3914 257.722 78.3914C258.14 78.3914 258.483 78.3551 258.774 78.3188V81.3447C258.32 81.4174 257.577 81.5081 256.779 81.5081C253.009 81.5081 251.196 79.9145 251.196 76.1079V76.1099Z" fill="#333333"/>
<path d="M262.552 71.5974V71.561C262.552 65.4729 266.16 61.7046 271.581 61.7046C277.003 61.7046 280.647 65.4547 280.647 71.561V71.5974C280.647 77.74 277.058 81.5083 271.6 81.5083C266.141 81.5083 262.552 77.7218 262.552 71.5974ZM276.64 71.5974V71.561C276.64 67.3933 274.646 64.9847 271.581 64.9847C268.517 64.9847 266.559 67.3954 266.559 71.561V71.5974C266.559 75.8195 268.554 78.2282 271.618 78.2282C274.682 78.2282 276.64 75.7994 276.64 71.5974Z" fill="#333333"/>
<path d="M285.532 62.0676H289.448V65.3296H289.538C290.154 63.1005 291.751 61.7065 293.927 61.7065C294.488 61.7065 294.978 61.7973 295.287 61.8518V65.493C294.978 65.3659 294.29 65.2751 293.529 65.2751C291.01 65.2751 289.45 66.9232 289.45 69.7696V81.131H285.534V62.0697L285.532 62.0676Z" fill="#333333"/>
<path d="M297.905 71.67V71.6518C297.905 65.6907 301.351 61.7046 306.698 61.7046C312.045 61.7046 315.327 65.5455 315.327 71.2706V72.5939H301.819C301.892 76.1988 303.868 78.3008 306.987 78.3008C309.308 78.3008 310.848 77.1045 311.339 75.6743L311.393 75.529H315.109L315.073 75.7288C314.457 78.7547 311.52 81.5083 306.896 81.5083C301.294 81.5083 297.903 77.6855 297.903 71.67H297.905ZM301.876 69.8221H311.448C311.121 66.5239 309.272 64.9121 306.716 64.9121C304.161 64.9121 302.219 66.6328 301.876 69.8221Z" fill="#333333"/>
<path d="M108.077 49.8005C105.635 51.4971 103.975 53.1997 103.097 54.9103C102.219 56.621 101.779 58.4749 101.779 60.4679C101.779 62.0455 102.04 63.4878 102.56 64.797C103.081 66.1063 103.818 67.3489 104.771 68.525C105.723 69.7011 107.316 70.8691 109.551 72.029C108.687 74.5587 107.346 77.1388 105.532 79.7734C103.715 82.4059 102.07 84.2739 100.596 85.3754C99.1228 86.4768 97.7158 87.0275 96.3755 87.0275C95.3037 87.0275 93.8584 86.6866 92.0437 86.0007L91.1959 85.6881L89.8112 85.1071C88.8282 84.8105 87.7422 84.6613 86.5513 84.6613C85.3603 84.6613 83.9615 84.9296 82.4415 85.4641L81.3696 85.8656L80.0293 86.4022C78.9575 86.8198 77.8856 87.0275 76.8138 87.0275C74.551 87.0275 72.1247 85.444 69.5329 82.2748C66.9431 79.1057 64.9851 75.6985 63.6589 72.0532C62.3327 68.408 61.6706 64.7264 61.6706 61.0066C61.6706 56.2155 63.0332 52.2293 65.7582 49.0441C68.4832 45.8608 72.1812 44.2691 76.8562 44.2691C78.5538 44.2691 80.1464 44.5818 81.6361 45.2072L82.6635 45.6086L83.7354 46.0544C84.6881 46.4418 85.4471 46.6354 86.0123 46.6354C86.846 46.6354 87.6796 46.472 88.5133 46.1452L89.9424 45.6086L90.9699 45.2072C92.6372 44.5818 94.4821 44.2691 96.5088 44.2691C101.303 44.2691 105.158 46.115 108.077 49.8046V49.8005ZM96.7308 28.5303C96.7893 29.1859 96.8196 29.6902 96.8196 30.0473C96.8196 31.8931 96.2827 33.7974 95.2108 35.7602C94.139 37.723 92.7381 39.2501 91.0122 40.3354C89.2844 41.4227 87.3789 41.9654 85.2957 41.9654C85.2069 41.2513 85.1625 40.7308 85.1625 40.404C85.1625 38.8265 85.6308 37.1683 86.5694 35.4274C87.5081 33.6865 88.7797 32.2058 90.3885 30.9853C91.9973 29.7649 93.812 28.9922 95.8366 28.6634C96.0162 28.6352 96.313 28.5888 96.7308 28.5303Z" fill="#333333"/>
</g>
<defs>
<clipPath id="clip0_24_275">
<rect width="377" height="116" fill="white"/>
</clipPath>
</defs>
</svg>
