<svg width="142" height="683" viewBox="0 0 142 683" fill="none" xmlns="http://www.w3.org/2000/svg">
<g clip-path="url(#clip0_24_436)">
<path d="M72.09 142.53L59.1199 191.02C49.3399 188.39 39.4699 187.09 29.6299 187.09C10.0399 187.09 -9.33009 192.26 -26.7801 202.28C-31.3001 204.91 -35.5701 207.76 -39.6201 210.94C-42.2501 212.95 -44.7601 215.09 -47.2001 217.35C-58.2801 227.59 -67.1601 239.88 -73.3201 253.74V253.77C-75.3001 258.07 -76.9701 262.53 -78.3301 267.11H-78.3601C-78.7601 268.41 -79.1301 269.71 -79.5101 271.04C-87.3401 300.22 -83.3201 330.73 -68.1801 356.94C-62.5201 366.78 -55.5201 375.57 -47.4201 383.06C-65.9201 385.35 -84.1801 390.39 -101.2 397.98C-104.98 392.91 -108.47 387.58 -111.66 382.01C-127.72 354.16 -135.12 322.94 -133.32 291.59C-133.17 288.8 -132.95 286.05 -132.67 283.3C-132.36 280.48 -131.99 277.64 -131.56 274.79H-131.53C-130.63 269.19 -129.46 263.62 -127.97 258.05C-122 235.8 -111.66 215.5 -97.6501 198.05C-97.6501 197.99 -97.5901 197.99 -97.5901 197.99C-93.4701 192.82 -88.9901 187.87 -84.1901 183.26C-81.4101 180.54 -78.5301 177.94 -75.5301 175.43H-75.5001C-68.2001 169.27 -60.3101 163.73 -51.8601 158.84C-26.7001 144.33 1.23991 136.93 29.5499 136.93C43.7199 136.93 58.0199 138.79 72.0699 142.53H72.09Z" fill="#2F2151"/>
<path d="M140.4 273.49C135.99 289.85 119.1 299.58 102.77 295.21C86.44 290.84 76.71 273.95 81.08 257.62C83.2 249.69 88.27 243.06 95.4 238.97C102.49 234.88 110.74 233.79 118.67 235.9C135.03 240.27 144.76 257.16 140.39 273.49H140.4Z" fill="#2F2151"/>
<path d="M112.16 378.82C107.79 395.18 90.9 404.91 74.57 400.54C58.21 396.17 48.47 379.28 52.85 362.95C54.97 355.02 60.08 348.42 67.17 344.3C74.29 340.21 82.55 339.12 90.48 341.23C98.38 343.38 105.01 348.42 109.1 355.55C113.23 362.64 114.28 370.92 112.17 378.82H112.16Z" fill="#2F2151"/>
<path d="M54.4 653.6C46.5 655.72 38.21 654.66 31.13 650.53C24.01 646.44 18.93 639.81 16.81 631.91C14.69 623.98 15.79 615.69 19.88 608.6C23.97 601.51 30.6 596.43 38.53 594.28C41.17 593.57 43.82 593.26 46.46 593.26C60 593.26 72.45 602.29 76.12 616C80.49 632.36 70.76 649.22 54.4 653.59V653.6Z" fill="#91C03D"/>
<path d="M133.67 528.99L85.21 541.96C77.38 512.75 58.66 488.37 32.45 473.26C27.93 470.66 23.32 468.4 18.62 466.45C15.49 465.18 12.4 464.07 9.21002 463.11C-1.52998 459.71 -12.67 458.03 -23.93 458.03C-27.77 458.03 -31.6 458.25 -35.44 458.62H-35.5C-40.17 459.12 -44.78 459.89 -49.46 460.94C-50.76 461.28 -52.09 461.59 -53.42 461.93C-95.1 473.1 -125.12 506.3 -134.31 545.7C-145.45 530.97 -158.79 517.91 -174.13 506.77C-171.62 500.92 -168.81 495.17 -165.59 489.6C-149.5 461.78 -126.2 439.81 -98.19 425.64C-95.71 424.4 -93.21 423.2 -90.67 422.05C-88.07 420.9 -85.41 419.79 -82.75 418.83C-77.43 416.76 -71.95 414.96 -66.38 413.51C-52.3 409.73 -38.04 407.85 -23.86 407.85C-15.47 407.85 -7.18001 408.5 1.04999 409.83C7.57999 410.82 13.98 412.21 20.33 414.04C24.07 415.09 27.82 416.3 31.47 417.66C40.44 420.91 49.14 424.96 57.59 429.82C95.34 451.6 122.39 486.85 133.68 528.99H133.67Z" fill="#91C03D"/>
</g>
<defs>
<clipPath id="clip0_24_436">
<rect width="746.45" height="782.91" fill="white" transform="translate(-605)"/>
</clipPath>
</defs>
</svg>
