<svg width="310" height="514" viewBox="0 0 310 514" fill="none" xmlns="http://www.w3.org/2000/svg">
<g clip-path="url(#clip0_26_2)">
<path d="M61.3495 364.205C58.3549 359.64 54.0438 356.043 48.5452 353.464C43.0208 350.872 36.5154 349.557 29.2614 349.557H0.684099V438.103H23.7628V412.301H29.2614C36.6057 412.301 43.1369 410.934 48.6743 408.265C54.16 405.609 58.4324 401.779 61.4011 396.892C64.3698 392.005 65.8542 386.254 65.8542 379.82C65.8542 374.017 64.344 368.757 61.3495 364.218V364.205Z" fill="#2F2151"/>
<path d="M130.095 416.337V438.103H72.9275V349.557H96.0191V416.337H130.095Z" fill="#2F2151"/>
<path d="M309.058 349.557V411.876C308.967 416.531 308.916 421.108 308.916 425.441V438.103H278.17L250.083 375.591V438.103H228.554V349.557H259.325L287.541 410.793V349.557H309.071H309.058Z" fill="#2F2151"/>
<path d="M144.422 413.526C144.035 414.583 143.622 415.666 143.209 416.737C140.524 423.88 137.814 430.998 135.09 438.116H157.782C158.943 434.699 160.131 431.282 161.318 427.865C162.183 428.458 163.074 429.012 163.977 429.554C166.017 430.779 168.146 431.888 170.341 432.868C177.904 436.259 186.281 438.129 195.097 438.129H223.713C222.965 436.13 222.216 434.118 221.467 432.12C219.26 426.24 217.066 420.399 214.859 414.558C214.394 413.333 213.942 412.133 213.478 410.908C209.941 401.483 206.417 392.005 202.855 382.489C199.318 372.973 195.768 363.482 192.18 353.953C191.832 353.077 191.522 352.226 191.264 351.426C191.057 350.833 190.838 350.214 190.58 349.569H168.753C165.991 356.984 163.203 364.385 160.453 371.58C158.388 376.983 156.323 382.373 154.271 387.75C153.419 384.449 152.98 380.98 152.98 377.421H134.316C134.316 390.213 138.291 402.089 145.081 411.876L144.435 413.539L144.422 413.526ZM170.315 401.676L171.322 398.71C171.967 396.866 172.599 395.01 173.232 393.14C174.923 388.085 176.652 383.018 178.421 377.95L179.26 375.539L180.125 377.95C181.428 381.612 182.771 385.274 184.126 388.936C185.468 392.611 186.811 396.312 188.063 399.948C189.328 403.623 190.618 407.285 191.922 410.947L192.671 413.075L195.265 419.496H195.097C194.581 419.496 194.065 419.496 193.548 419.47C191.767 419.419 190.012 419.238 188.295 418.942C182.654 418.026 177.362 415.989 172.716 413.036C171.657 412.378 170.65 411.669 169.669 410.921C168.998 410.406 168.34 409.877 167.695 409.322L170.328 401.689L170.315 401.676Z" fill="#2F2151"/>
<path d="M20.4842 371.516V375.332H29.313V381.586H20.4842V386.112H30.4489V392.379H13.4884V365.249H30.4489V371.516H20.4842Z" fill="white"/>
<path d="M52.2497 385.713V392.392H34.7341V365.249H41.8075V385.713H52.2497Z" fill="white"/>
<path d="M50.4684 465.723C47.7191 461.081 43.7436 457.432 38.6709 454.892C36.1152 453.615 33.3401 452.661 30.3456 452.029C27.364 451.384 24.1758 451.062 20.7811 451.062H0V514H20.4068C27.0542 514 33.0304 512.685 38.2063 510.106C43.3564 507.527 47.4222 503.8 50.2748 498.991C53.1532 494.181 54.6117 488.43 54.6117 481.867C54.6117 475.819 53.2177 470.378 50.4684 465.723ZM35.031 490.893C33.5337 493.395 31.4427 495.303 28.7967 496.58C26.1894 497.856 23.169 498.501 19.8518 498.501H16.4055V466.51H20.2261C23.6595 466.51 26.7057 467.167 29.2743 468.444C31.8558 469.72 33.8564 471.551 35.2246 473.859C36.5928 476.155 37.2769 478.837 37.2769 481.854C37.2769 485.374 36.5283 488.417 35.0439 490.893H35.031Z" fill="#91C03D"/>
<path d="M74.9798 465.581V474.414H95.477V488.946H74.9798V499.442H98.0843V513.987H58.7551V451.049H98.0843V465.581H74.9798Z" fill="#91C03D"/>
<path d="M159.963 451.049V495.355C159.898 498.669 159.86 501.918 159.86 505V514H138.007L118.026 469.566V514H102.731V451.062H124.596L144.655 494.594V451.062H159.963V451.049Z" fill="#91C03D"/>
<path d="M215.633 451.049V466.523H199.137L198.492 466.561V513.987H181.802V466.523H164.558V451.049H215.633Z" fill="#91C03D"/>
<path d="M310 498.527V514H269.354V451.049H285.773V498.527H310Z" fill="#91C03D"/>
<path d="M203.113 513.871H219.247C220.073 511.447 220.912 509.023 221.751 506.612C222.358 507.037 222.99 507.424 223.636 507.811C225.094 508.675 226.604 509.461 228.166 510.158C233.549 512.556 239.499 513.884 245.772 513.884H266.114C265.585 512.466 265.043 511.034 264.514 509.616C262.939 505.451 261.377 501.312 259.816 497.16C259.493 496.296 259.157 495.432 258.835 494.568C256.331 487.889 253.814 481.171 251.284 474.427C248.78 467.683 246.237 460.952 243.694 454.195C243.449 453.577 243.229 452.971 243.036 452.403C242.894 451.978 242.726 451.552 242.545 451.088H227.03C225.068 456.349 205.036 508.817 203.1 513.858L203.113 513.871ZM228.153 488.043L228.863 485.942C229.315 484.626 229.767 483.324 230.219 481.996C231.419 478.411 232.645 474.814 233.91 471.229L234.504 469.514L235.111 471.229C236.04 473.834 236.982 476.413 237.963 479.017C238.918 481.622 239.873 484.24 240.764 486.819C241.668 489.423 242.584 492.015 243.513 494.62L244.043 496.128L245.888 500.68H245.772C245.411 500.68 245.036 500.68 244.675 500.654C243.41 500.616 242.171 500.487 240.945 500.28C236.931 499.636 233.174 498.179 229.87 496.103C229.121 495.638 228.399 495.135 227.702 494.607C227.224 494.246 226.746 493.872 226.295 493.472L228.166 488.056L228.153 488.043Z" fill="#91C03D"/>
<path d="M138.846 291.673C134.29 296.225 126.907 296.225 122.35 291.673C117.807 287.134 117.807 279.746 122.35 275.207C124.558 273.015 127.475 271.803 130.598 271.803C133.722 271.803 136.639 273.015 138.846 275.207C143.39 279.746 143.39 287.134 138.846 291.673Z" fill="#2F2151"/>
<path d="M112.98 254.215C112.98 257.323 111.766 260.25 109.572 262.442C107.365 264.647 104.448 265.859 101.324 265.859C98.2004 265.859 95.2834 264.647 93.0891 262.442C90.8819 260.25 89.6815 257.323 89.6815 254.215C89.6815 251.107 90.8819 248.18 93.0891 245.975C95.2834 243.783 98.2134 242.571 101.324 242.571C104.435 242.571 107.365 243.783 109.572 245.975C111.766 248.18 112.98 251.095 112.98 254.215Z" fill="#2F2151"/>
<path d="M178.369 294.085C176.51 295.941 174.071 296.883 171.644 296.883L164.919 280.636C181.66 263.911 181.66 236.665 164.919 219.941C156.53 211.56 145.532 207.382 134.535 207.382C130.301 207.382 126.081 207.988 122.015 209.226C124.725 202.83 126.52 195.957 127.281 188.801C129.695 188.517 132.109 188.375 134.535 188.375C147.43 188.375 160.337 192.36 171.205 200.329L171.812 200.78C172.987 201.657 174.122 202.572 175.22 203.552C175.749 204.004 176.265 204.455 176.756 204.932C177.311 205.435 177.866 205.964 178.382 206.479C180.602 208.697 182.667 211.096 184.539 213.649C185.3 214.68 186.036 215.725 186.707 216.795C202.132 240.766 199.357 273.131 178.382 294.085H178.369Z" fill="#2F2151"/>
<path d="M117.613 184.533C117.562 185.577 117.484 186.622 117.368 187.666C117.265 188.736 117.123 189.82 116.955 190.89C116.619 193.017 116.155 195.132 115.587 197.247C113.315 205.68 109.391 213.391 104.048 220.006V220.031C102.473 221.991 100.782 223.835 98.962 225.602C97.9036 226.633 96.8064 227.626 95.6577 228.568C92.8825 230.889 89.8751 232.99 86.6869 234.834C77.1354 240.353 66.5254 243.164 55.7992 243.164H55.7734C50.3781 243.164 44.9827 242.455 39.639 241.024L44.5697 222.649C48.2741 223.629 52.0431 224.145 55.7734 224.145C63.2081 224.145 70.5654 222.185 77.1741 218.355C78.8908 217.375 80.5042 216.292 82.0531 215.08C83.047 214.319 84.0022 213.52 84.9315 212.656C89.1265 208.787 92.5082 204.12 94.8574 198.859V198.833C95.5931 197.208 96.2256 195.532 96.7548 193.817C96.9226 193.327 97.0646 192.837 97.1937 192.321C101.44 176.474 96.2127 160.304 84.9702 149.834C91.979 148.97 98.9104 147.049 105.39 144.186C113.896 155.598 118.439 169.833 117.626 184.533H117.613Z" fill="#91C03D"/>
<path d="M36.2314 197.402C35.4312 200.406 33.495 202.908 30.8103 204.481C28.1126 206.028 24.9632 206.441 21.9686 205.641C18.9741 204.829 16.4571 202.908 14.8953 200.213C13.3335 197.531 12.9333 194.384 13.7336 191.38C15.1276 186.196 19.8389 182.753 24.989 182.753C25.9828 182.753 27.0025 182.882 27.9964 183.153C30.991 183.953 33.5079 185.887 35.0827 188.569C36.6316 191.264 37.0446 194.397 36.2314 197.402Z" fill="#91C03D"/>
<path d="M46.9576 157.468C45.2925 163.657 38.8904 167.345 32.6948 165.707C26.4862 164.031 22.7947 157.648 24.4469 151.433C25.8409 146.249 30.565 142.807 35.7022 142.807C36.709 142.807 37.7158 142.936 38.7097 143.206C41.7171 144.006 44.2341 145.94 45.7959 148.622C47.3448 151.317 47.7578 154.45 46.9576 157.455V157.468Z" fill="#91C03D"/>
<path d="M133.141 102.937C132.186 105.155 131.102 107.321 129.863 109.448C123.77 119.996 114.89 128.365 104.241 133.729C103.299 134.206 102.344 134.644 101.389 135.083C100.408 135.521 99.4008 135.934 98.3811 136.308C96.3676 137.094 94.3024 137.765 92.2114 138.319C86.8676 139.75 81.4465 140.473 76.064 140.473C72.8888 140.473 69.7394 140.228 66.6028 139.725C64.1633 139.351 61.7238 138.809 59.3101 138.126C57.8773 137.726 56.4833 137.275 55.0635 136.759C51.6688 135.521 48.3516 133.987 45.1634 132.143C30.8232 123.864 20.5617 110.506 16.2764 94.5295L34.6567 89.6167C37.6254 100.68 44.7504 109.938 54.6763 115.676C56.393 116.656 58.1484 117.52 59.9554 118.255C61.1171 118.732 62.3046 119.158 63.505 119.519C67.5967 120.783 71.8304 121.427 76.1028 121.427C77.5742 121.427 79.0199 121.363 80.4784 121.221C82.2467 121.028 84.0151 120.757 85.7705 120.344C86.2739 120.228 86.8031 120.099 87.3065 119.97C103.17 115.715 114.58 103.091 118.039 88.1338C122.234 93.7042 127.307 98.7202 133.167 102.962L133.141 102.937Z" fill="#2F2151"/>
<path d="M59.465 64.3179C57.9161 67 55.3991 68.9342 52.3787 69.7336C46.1831 71.3841 39.781 67.6963 38.103 61.5069C36.4508 55.3047 40.1424 48.8961 46.3509 47.2327C47.3577 46.962 48.3774 46.833 49.3971 46.833C51.4107 46.833 53.3984 47.3617 55.2055 48.3932C57.8902 49.9406 59.8264 52.455 60.6266 55.4723C61.4398 58.4767 61.0139 61.6101 59.465 64.305V64.3179Z" fill="#2F2151"/>
<path d="M92.3791 59.031C89.3717 59.8304 86.2223 59.4178 83.5375 57.8705C80.8527 56.2973 78.9166 53.7958 78.1034 50.7914C76.4513 44.5892 80.1428 38.1935 86.3513 36.5301C87.3581 36.2593 88.3649 36.1304 89.3717 36.1304C94.5089 36.1304 99.233 39.5732 100.627 44.7568C102.292 50.959 98.6006 57.3418 92.3921 59.031H92.3791Z" fill="#2F2151"/>
<path d="M187.972 85.8513C185.726 91.1638 184.113 96.76 183.184 102.55C182.99 103.788 182.835 105.064 182.706 106.289C180.305 106.573 177.891 106.715 175.478 106.715C163.68 106.715 151.896 103.388 141.66 96.7342C140.782 96.1669 139.905 95.5608 139.053 94.9419C138.188 94.3101 137.323 93.6525 136.484 92.969C134.806 91.6022 133.18 90.1581 131.631 88.5978C125.268 82.2408 120.582 74.8394 117.575 66.9609C116.71 64.6785 115.961 62.3317 115.38 59.985C115.019 58.5408 114.709 57.0966 114.451 55.6395C111.056 36.4009 116.774 15.8342 131.631 0.992676L145.093 14.4545C135.232 24.3059 131.179 37.7935 132.935 50.6493C133.102 51.8872 133.322 53.1251 133.619 54.363C134.858 59.8302 137.181 65.117 140.602 69.8492C141.634 71.2934 142.77 72.686 144.022 74.0013C144.358 74.3881 144.732 74.762 145.106 75.136C153.483 83.4916 164.493 87.6823 175.491 87.6823C179.711 87.6823 183.919 87.0763 187.985 85.8384L187.972 85.8513Z" fill="#91C03D"/>
<path d="M187.637 19.8704C185.429 22.0754 182.499 23.3003 179.389 23.3003C176.278 23.3003 173.348 22.0754 171.154 19.8704C166.597 15.3444 166.597 7.9559 171.154 3.40414C173.348 1.21208 176.278 0 179.389 0C182.499 0 185.429 1.21208 187.637 3.40414C192.167 7.9559 192.167 15.3315 187.637 19.8704Z" fill="#91C03D"/>
<path d="M220.306 40.8757C220.306 43.9832 219.105 46.9103 216.898 49.1023C214.704 51.3073 211.761 52.5194 208.663 52.5194C205.565 52.5194 202.622 51.3073 200.415 49.1023C198.221 46.9103 196.995 43.9832 196.995 40.8757C196.995 37.7681 198.221 34.8539 200.415 32.6361C202.622 30.4569 205.539 29.2319 208.663 29.2319C211.787 29.2319 214.704 30.4569 216.898 32.6361C219.105 34.8539 220.306 37.7681 220.306 40.8757Z" fill="#91C03D"/>
<path d="M270.348 54.041L265.43 72.4285C261.713 71.4356 257.97 70.9327 254.24 70.9327C246.805 70.9327 239.447 72.8927 232.826 76.6966C231.109 77.6895 229.496 78.7726 227.947 79.9847C226.953 80.7454 225.998 81.5578 225.068 82.4088C220.861 86.2901 217.492 90.945 215.156 96.2059C214.407 97.8435 213.774 99.5327 213.258 101.273C213.103 101.763 212.961 102.253 212.819 102.769C209.851 113.833 211.374 125.399 217.117 135.341C219.273 139.067 221.919 142.407 225.004 145.244C217.982 146.108 211.051 148.029 204.584 150.904C203.152 148.983 201.822 146.959 200.609 144.844C194.516 134.283 191.703 122.446 192.387 110.557C192.451 109.5 192.529 108.456 192.632 107.411C192.748 106.341 192.89 105.258 193.058 104.188C193.393 102.06 193.845 99.9582 194.413 97.8435C196.685 89.4105 200.609 81.7125 205.927 75.0977C205.927 75.0719 205.952 75.0719 205.952 75.0719C207.514 73.1119 209.218 71.2293 211.038 69.4886C212.096 68.457 213.194 67.4641 214.329 66.5228C217.105 64.1889 220.099 62.0871 223.3 60.2303C232.852 54.7244 243.462 51.9263 254.201 51.9263C259.583 51.9263 265.004 52.6355 270.335 54.0539L270.348 54.041Z" fill="#2F2151"/>
<path d="M296.279 103.71C294.601 109.912 288.199 113.6 281.991 111.95C275.795 110.286 272.104 103.891 273.756 97.7013C274.556 94.6969 276.492 92.1825 279.19 90.6223C281.875 89.0749 285.011 88.6623 288.018 89.4618C294.227 91.1252 297.919 97.5208 296.266 103.71H296.279Z" fill="#2F2151"/>
<path d="M285.553 143.645C283.888 149.847 277.486 153.535 271.29 151.884C265.082 150.221 261.39 143.825 263.042 137.636C263.843 134.632 265.792 132.13 268.476 130.557C271.174 129.01 274.311 128.597 277.318 129.396C280.313 130.209 282.83 132.13 284.391 134.825C285.953 137.507 286.353 140.653 285.553 143.645Z" fill="#2F2151"/>
<path d="M263.623 247.845C260.629 248.644 257.479 248.245 254.795 246.685C252.097 245.137 250.161 242.623 249.36 239.618C248.56 236.614 248.973 233.468 250.522 230.786C252.071 228.104 254.588 226.169 257.608 225.357C258.615 225.086 259.622 224.97 260.616 224.97C265.753 224.97 270.477 228.387 271.871 233.597C273.536 239.799 269.832 246.195 263.623 247.845Z" fill="#91C03D"/>
<path d="M223.649 258.56C217.44 260.211 211.038 256.523 209.386 250.32C207.721 244.118 211.425 237.723 217.621 236.072C220.628 235.273 223.778 235.672 226.462 237.233C229.147 238.78 231.083 241.294 231.897 244.299C233.562 250.501 229.857 256.897 223.649 258.573V258.56Z" fill="#91C03D"/>
<path d="M293.711 200.587L275.317 205.499C272.349 194.423 265.237 185.178 255.285 179.452C253.568 178.472 251.826 177.609 250.032 176.874C248.844 176.396 247.67 175.971 246.456 175.61C242.377 174.32 238.157 173.689 233.871 173.689C232.413 173.689 230.954 173.766 229.496 173.908H229.47C227.702 174.101 225.946 174.385 224.178 174.785C223.687 174.914 223.184 175.03 222.681 175.159C206.856 179.401 195.472 191.986 191.974 206.918C187.74 201.334 182.68 196.383 176.859 192.154C177.814 189.936 178.885 187.757 180.099 185.642C186.204 175.094 195.046 166.764 205.681 161.387C206.624 160.923 207.579 160.459 208.534 160.02C209.515 159.582 210.535 159.169 211.541 158.795C213.568 158.009 215.646 157.326 217.75 156.771C223.094 155.34 228.515 154.618 233.884 154.618C237.072 154.618 240.209 154.863 243.346 155.366C245.824 155.739 248.25 156.268 250.664 156.964C252.084 157.364 253.504 157.816 254.898 158.331C258.305 159.569 261.61 161.104 264.811 162.948C279.138 171.213 289.412 184.572 293.698 200.561L293.711 200.587Z" fill="#91C03D"/>
</g>
<defs>
<clipPath id="clip0_26_2">
<rect width="310" height="514" fill="white"/>
</clipPath>
</defs>
</svg>
