<svg width="479" height="901" viewBox="0 0 479 901" fill="none" xmlns="http://www.w3.org/2000/svg">
<g clip-path="url(#clip0_24_18)">
<path d="M0.691612 884.72C-13.0863 898.498 -35.4597 898.498 -49.2262 884.72C-62.9581 870.988 -62.9581 848.58 -49.2262 834.837C-42.5383 828.195 -33.7015 824.506 -24.2673 824.506C-14.833 824.506 -5.99627 828.195 0.691612 834.837C14.4236 848.569 14.4236 870.977 0.691612 884.72Z" fill="#886AAB"/>
<path d="M120.349 892.029C114.73 897.648 107.33 900.486 99.9756 900.486L79.6016 851.235C130.278 800.559 130.278 717.994 79.6016 667.33C54.2176 641.946 20.9276 629.282 -12.3854 629.282C-25.1866 629.282 -37.9878 631.132 -50.2949 634.867C-42.0787 615.493 -36.6433 594.648 -34.368 572.964C-27.0826 572.114 -19.7512 571.688 -12.3969 571.688C26.6502 571.688 65.7203 583.777 98.6196 607.92L100.47 609.276C104.02 611.942 107.479 614.711 110.777 617.665C112.375 619.021 113.937 620.4 115.431 621.859C117.097 623.387 118.775 624.985 120.338 626.547C127.06 633.27 133.312 640.521 138.965 648.277C141.275 651.403 143.481 654.574 145.538 657.803C192.227 730.451 183.838 828.517 120.326 892.029H120.349Z" fill="#886AAB"/>
<path d="M149.399 261.012C142.608 277.123 137.701 294.084 134.886 311.608C134.277 315.377 133.817 319.215 133.426 322.95C126.176 323.8 118.844 324.225 111.559 324.225C75.8556 324.225 40.1524 314.159 9.18366 294.004C6.51771 292.291 3.88622 290.453 1.28922 288.568C-1.34227 286.649 -3.93929 284.661 -6.50182 282.593C-11.5809 278.467 -16.4992 274.055 -21.1876 269.366C-40.4583 250.096 -54.6499 227.688 -63.751 203.798C-66.3825 196.868 -68.6233 189.79 -70.4044 182.642C-71.5075 178.264 -72.4268 173.898 -73.2082 169.485C-83.4814 111.167 -66.1641 48.8733 -21.1876 3.88525L19.5602 44.6675C-10.3054 74.5331 -22.578 115.396 -17.2461 154.363C-16.752 158.132 -16.074 161.866 -15.1892 165.601C-11.4545 182.171 -4.41041 198.213 5.93167 212.542C9.05727 216.921 12.5046 221.149 16.2738 225.125C17.308 226.297 18.4111 227.435 19.5487 228.573C44.8983 253.888 78.2228 266.586 111.536 266.586C124.303 266.586 137.069 264.735 149.365 261.001L149.399 261.012Z" fill="#91C03D"/>
<path d="M148.399 61.0312C141.712 67.7191 132.863 71.4193 123.441 71.4193C114.018 71.4193 105.158 67.7191 98.5161 61.0312C84.7152 47.3107 84.7152 24.9374 98.5161 11.1479C105.17 4.49453 114.018 0.840332 123.441 0.840332C132.863 0.840332 141.723 4.50602 148.399 11.1479C162.12 24.9489 162.12 47.3107 148.399 61.0312Z" fill="#91C03D"/>
<path d="M247.293 124.715C247.293 134.138 243.662 142.998 236.985 149.64C230.332 156.328 221.449 159.982 212.061 159.982C202.672 159.982 193.778 156.316 187.102 149.64C180.449 142.986 176.76 134.138 176.76 124.715C176.76 115.292 180.46 106.479 187.102 99.7563C193.79 93.1374 202.603 89.4487 212.061 89.4487C221.518 89.4487 230.343 93.1489 236.985 99.7563C243.673 106.479 247.293 115.292 247.293 124.715Z" fill="#91C03D"/>
<path d="M398.77 164.613L383.866 220.334C372.627 217.311 361.285 215.818 349.978 215.818C327.467 215.818 305.208 221.759 285.156 233.273C279.962 236.295 275.055 239.57 270.402 243.224C267.379 245.534 264.495 247.993 261.691 250.59C248.959 262.357 238.755 276.48 231.676 292.406V292.441C229.401 297.382 227.482 302.507 225.919 307.77H225.885C225.425 309.264 225 310.758 224.563 312.286C215.565 345.818 220.185 380.877 237.583 410.996C244.087 422.303 252.131 432.404 261.438 441.011C240.18 443.642 219.197 449.434 199.639 458.156C195.295 452.329 191.285 446.205 187.619 439.804C169.164 407.801 160.661 371.926 162.729 335.901C162.901 332.695 163.154 329.535 163.476 326.374C163.832 323.134 164.257 319.87 164.751 316.595H164.786C165.82 310.16 167.165 303.76 168.877 297.359C175.737 271.791 187.619 248.464 203.718 228.412C203.718 228.343 203.787 228.343 203.787 228.343C208.521 222.402 213.669 216.714 219.185 211.416C222.38 208.291 225.689 205.303 229.137 202.419H229.171C237.56 195.34 246.626 188.974 256.336 183.355C285.248 166.681 317.355 158.178 349.886 158.178C366.169 158.178 382.602 160.315 398.747 164.613H398.77Z" fill="#886AAB"/>
<path d="M477.266 315.102C472.198 333.901 452.79 345.082 434.025 340.06C415.26 335.039 404.079 315.63 409.1 296.865C411.536 287.753 417.362 280.134 425.556 275.434C433.703 270.734 443.183 269.482 452.296 271.906C471.095 276.928 482.276 296.336 477.255 315.102H477.266Z" fill="#886AAB"/>
<path d="M444.815 436.138C439.793 454.938 420.385 466.119 401.62 461.097C382.82 456.075 371.627 436.667 376.661 417.902C379.097 408.789 384.969 401.205 393.116 396.471C401.298 391.771 410.789 390.518 419.902 392.943C428.98 395.413 436.599 401.205 441.299 409.398C446.044 417.545 447.251 427.06 444.826 436.138H444.815Z" fill="#886AAB"/>
<path d="M378.442 751.894C369.364 754.33 359.838 753.112 351.702 748.366C343.52 743.666 337.683 736.047 335.246 726.969C332.81 717.857 334.074 708.33 338.774 700.183C343.474 692.036 351.093 686.198 360.205 683.728C363.239 682.912 366.284 682.556 369.318 682.556C384.877 682.556 399.183 692.932 403.401 708.687C408.422 727.486 397.241 746.86 378.442 751.882V751.894Z" fill="#91C03D"/>
<path d="M257.393 784.344C238.594 789.332 219.22 778.185 214.198 759.385C209.176 740.586 220.357 721.212 239.122 716.19C248.235 713.754 257.761 714.972 265.908 719.718C274.056 724.418 279.893 732.036 282.364 741.114C287.385 759.914 276.205 779.288 257.405 784.356L257.393 784.344Z" fill="#91C03D"/>
<path d="M469.532 608.701L413.846 623.606C404.849 590.04 383.337 562.024 353.219 544.661C348.025 541.673 342.727 539.076 337.326 536.836C333.729 535.376 330.179 534.101 326.513 532.997C314.171 529.09 301.37 527.16 288.431 527.16C284.019 527.16 279.617 527.413 275.205 527.838H275.136C269.769 528.412 264.472 529.297 259.094 530.504C257.6 530.895 256.072 531.251 254.544 531.641C206.648 544.477 172.152 582.628 161.591 627.903C148.79 610.977 133.461 595.969 115.833 583.168C118.718 576.446 121.947 569.838 125.647 563.438C144.136 531.469 170.911 506.223 203.098 489.94C205.947 488.515 208.82 487.136 211.739 485.815C214.727 484.493 217.783 483.218 220.84 482.114C226.953 479.736 233.25 477.667 239.651 476.001C255.831 471.657 272.217 469.497 288.512 469.497C298.153 469.497 307.679 470.244 317.136 471.772C324.64 472.91 331.994 474.507 339.291 476.61C343.589 477.817 347.898 479.207 352.092 480.77C362.4 484.505 372.397 489.159 382.107 494.743C425.487 519.771 456.57 560.278 469.544 608.701H469.532Z" fill="#91C03D"/>
</g>
<defs>
<clipPath id="clip0_24_18">
<rect width="857.76" height="899.657" fill="white" transform="translate(-379.288 0.828613)"/>
</clipPath>
</defs>
</svg>
