<svg width="540" height="900" viewBox="0 0 540 900" fill="none" xmlns="http://www.w3.org/2000/svg">
<g clip-path="url(#clip0_24_39)">
<path d="M380.507 884.234C366.729 898.012 344.355 898.012 330.589 884.234C316.857 870.502 316.857 848.095 330.589 834.351C337.277 827.709 346.114 824.021 355.548 824.021C364.982 824.021 373.819 827.709 380.507 834.351C394.239 848.083 394.239 870.491 380.507 884.234Z" fill="#886AAB"/>
<path d="M302.217 770.69C302.217 780.09 298.529 788.961 291.887 795.614C285.199 802.302 276.362 805.991 266.928 805.991C257.493 805.991 248.657 802.302 242.003 795.614C235.315 788.972 231.673 780.09 231.673 770.69C231.673 761.29 235.315 752.419 242.003 745.731C248.645 739.089 257.528 735.4 266.928 735.4C276.328 735.4 285.199 739.089 291.887 745.731C298.529 752.419 302.217 761.256 302.217 770.69Z" fill="#886AAB"/>
<path d="M500.165 891.543C494.545 897.162 487.145 900 479.791 900L459.417 850.749C510.093 800.073 510.093 717.509 459.417 666.844C434.033 641.46 400.743 628.797 367.43 628.797C354.629 628.797 341.827 630.647 329.52 634.381C337.736 615.007 343.172 594.162 345.447 572.478C352.733 571.628 360.064 571.203 367.418 571.203C406.465 571.203 445.535 583.291 478.435 607.434L480.285 608.79C483.836 611.456 487.294 614.226 490.592 617.179C492.19 618.535 493.752 619.914 495.246 621.373C496.913 622.902 498.59 624.499 500.153 626.062C506.875 632.784 513.127 640.035 518.78 647.791C521.09 650.917 523.296 654.089 525.353 657.318C572.042 729.965 563.653 828.031 500.142 891.543H500.165Z" fill="#886AAB"/>
<path d="M316.225 559.527C316.087 562.687 315.834 565.859 315.478 569.019C315.156 572.26 314.731 575.523 314.237 578.798C313.203 585.233 311.824 591.668 310.112 598.069C303.251 623.637 291.335 646.998 275.19 667.05L275.155 667.119C270.421 673.06 265.307 678.645 259.792 684.011C256.586 687.137 253.288 690.125 249.794 693.009C241.406 700.053 232.305 706.419 222.629 711.993C193.717 728.701 161.611 737.239 129.114 737.239H129.045C112.727 737.239 96.3639 735.101 80.1843 730.769L95.1228 675.083C106.327 678.071 117.738 679.599 129.045 679.599C151.556 679.599 173.815 673.658 193.832 662.063C199.026 659.076 203.933 655.801 208.587 652.146C211.609 649.837 214.493 647.412 217.297 644.781C229.995 633.048 240.234 618.891 247.347 602.964V602.895C249.588 597.954 251.472 592.898 253.069 587.681C253.563 586.187 253.989 584.693 254.379 583.13C267.249 535.132 251.392 486.087 217.366 454.371C238.59 451.74 259.573 445.948 279.166 437.272C304.906 471.838 318.673 514.999 316.213 559.527H316.225Z" fill="#91C03D"/>
<path d="M69.8652 598.551C67.429 607.664 61.603 615.248 53.4557 619.982C45.274 624.682 35.7478 625.935 26.6698 623.51C17.5917 621.04 9.97305 615.248 5.27314 607.055C0.52728 598.908 -0.679296 589.393 1.74535 580.269C5.96262 564.549 20.2232 554.126 35.8282 554.126C38.8274 554.126 41.9071 554.529 44.9408 555.345C54.0188 557.781 61.6375 563.607 66.3718 571.754C71.0717 579.936 72.3243 589.416 69.8537 598.54L69.8652 598.551Z" fill="#91C03D"/>
<path d="M102.328 477.515C97.3061 496.28 77.8975 507.461 59.1324 502.474C40.3328 497.406 29.1404 478.044 34.1735 459.233C38.3908 443.513 52.6973 433.102 68.2564 433.102C71.2901 433.102 74.3353 433.504 77.3689 434.32C86.4814 436.756 94.1001 442.582 98.8 450.729C103.5 458.911 104.752 468.391 102.328 477.515Z" fill="#91C03D"/>
<path d="M363.224 312.26C360.34 318.982 357.042 325.555 353.307 331.99C334.852 363.959 307.974 389.308 275.753 405.557C272.903 407.016 270.03 408.326 267.112 409.648C264.124 410.958 261.102 412.245 258.011 413.348C251.932 415.727 245.669 417.761 239.337 419.427C223.158 423.771 206.725 425.931 190.442 425.931C180.847 425.931 171.275 425.184 161.783 423.656C154.383 422.518 147.029 420.886 139.697 418.818C135.354 417.611 131.125 416.221 126.862 414.658C116.588 410.923 106.557 406.27 96.881 400.685C53.4672 375.577 22.3835 335.116 9.44445 286.681L65.0963 271.776C74.0939 305.308 95.6399 333.358 125.689 350.756C130.883 353.743 136.215 356.34 141.651 358.581C145.167 360.04 148.764 361.316 152.383 362.419C164.759 366.257 177.595 368.211 190.5 368.211C194.947 368.211 199.314 367.992 203.726 367.567C209.058 367.004 214.424 366.142 219.722 364.901C221.25 364.545 222.848 364.154 224.376 363.764C272.421 350.859 306.94 312.593 317.397 267.295C330.095 284.187 345.447 299.367 363.201 312.237L363.224 312.26Z" fill="#2F2151"/>
<path d="M140.203 195.233C135.514 203.381 127.896 209.207 118.76 211.666C100.018 216.676 80.6094 205.484 75.5533 186.741C70.5431 167.93 81.7356 148.522 100.512 143.5C103.569 142.684 106.66 142.293 109.717 142.293C115.795 142.293 121.84 143.891 127.321 147.028C135.468 151.716 141.294 159.335 143.719 168.47C146.178 177.571 144.891 187.063 140.203 195.245V195.233Z" fill="#2F2151"/>
<path d="M239.843 179.238C230.742 181.651 221.216 180.41 213.069 175.721C204.921 170.952 199.095 163.38 196.602 154.279C191.591 135.468 202.784 116.093 221.56 111.072C224.617 110.256 227.639 109.865 230.696 109.865C246.232 109.865 260.562 120.288 264.756 135.996C269.801 154.807 258.608 174.147 239.831 179.238H239.843Z" fill="#2F2151"/>
<path d="M529.214 260.526C522.423 276.637 517.516 293.598 514.701 311.122C514.092 314.891 513.632 318.729 513.242 322.464C505.991 323.314 498.659 323.74 491.374 323.74C455.671 323.74 419.968 313.673 388.999 293.518C386.333 291.806 383.701 289.967 381.104 288.082C378.473 286.163 375.876 284.175 373.313 282.107C368.234 277.982 363.316 273.569 358.627 268.881C339.357 249.61 325.165 227.202 316.064 203.312C313.433 196.383 311.192 189.304 309.411 182.157C308.308 177.778 307.388 173.412 306.607 168.999C296.334 110.681 313.651 48.3875 358.627 3.39941L399.375 44.1817C369.51 74.0473 357.237 114.91 362.569 153.877C363.063 157.646 363.741 161.38 364.626 165.115C368.361 181.685 375.405 197.727 385.747 212.057C388.872 216.435 392.32 220.664 396.089 224.639C397.123 225.812 398.226 226.949 399.364 228.087C424.713 253.402 458.038 266.1 491.351 266.1C504.118 266.1 516.884 264.25 529.18 260.515L529.214 260.526Z" fill="#91C03D"/>
<path d="M528.215 60.5454C521.527 67.2333 512.678 70.9334 503.256 70.9334C493.833 70.9334 484.973 67.2333 478.331 60.5454C464.53 46.8249 464.53 24.4515 478.331 10.6621C484.985 4.00869 493.833 0.354492 503.256 0.354492C512.678 0.354492 521.538 4.02018 528.215 10.6621C541.935 24.463 541.935 46.8249 528.215 60.5454Z" fill="#91C03D"/>
<path d="M849.348 608.216L793.661 623.12C784.664 589.554 763.152 561.538 733.034 544.175C727.84 541.187 722.542 538.59 717.141 536.35C713.545 534.89 709.994 533.615 706.328 532.512C693.987 528.605 681.185 526.674 668.246 526.674C663.834 526.674 659.433 526.927 655.02 527.352H654.951C649.585 527.927 644.287 528.811 638.909 530.018C637.415 530.409 635.887 530.765 634.359 531.156C586.463 543.991 551.967 582.142 541.406 627.417C528.605 610.491 513.276 595.483 495.649 582.682C498.533 575.96 501.762 569.352 505.462 562.952C523.951 530.983 550.726 505.737 582.913 489.454C585.763 488.029 588.635 486.65 591.554 485.329C594.542 484.007 597.598 482.732 600.655 481.629C606.768 479.25 613.066 477.181 619.466 475.515C635.646 471.172 652.032 469.011 668.327 469.011C677.968 469.011 687.494 469.758 696.951 471.286C704.455 472.424 711.809 474.021 719.106 476.124C723.404 477.331 727.713 478.721 731.908 480.284C742.215 484.019 752.213 488.673 761.923 494.257C805.302 519.285 836.385 559.792 849.359 608.216H849.348Z" fill="#91C03D"/>
</g>
<defs>
<clipPath id="clip0_24_39">
<rect width="857.76" height="899.657" fill="white" transform="translate(0.527283 0.342773)"/>
</clipPath>
</defs>
</svg>
