<svg width="368" height="114" viewBox="0 0 368 114" fill="none" xmlns="http://www.w3.org/2000/svg">
<g clip-path="url(#clip0_24_342)">
<path d="M340.971 0H27.0294C12.1015 0 0 12.1015 0 27.0294V86.2722C0 101.2 12.1015 113.302 27.0294 113.302H340.971C355.899 113.302 368 101.2 368 86.2722V27.0294C368 12.1015 355.899 0 340.971 0Z" fill="#F0F5F7"/>
<path d="M144.802 37.634C144.802 39.3285 144.299 40.6782 143.294 41.6831C142.154 42.8791 140.666 43.4781 138.837 43.4781C137.009 43.4781 135.596 42.8712 134.373 41.6574C133.147 40.4437 132.534 38.9383 132.534 37.1414C132.534 35.3444 133.147 33.8391 134.373 32.6253C135.596 31.4116 137.086 30.8027 138.837 30.8027C139.706 30.8027 140.538 30.9722 141.328 31.3111C142.118 31.65 142.753 32.1012 143.225 32.6667L142.159 33.7346C141.356 32.7751 140.25 32.2943 138.837 32.2943C137.561 32.2943 136.455 32.7435 135.523 33.64C134.591 34.5385 134.124 35.705 134.124 37.1394C134.124 38.5738 134.589 39.7403 135.523 40.6388C136.455 41.5372 137.559 41.9845 138.837 41.9845C140.193 41.9845 141.322 41.5333 142.226 40.6309C142.814 40.0417 143.152 39.224 143.243 38.1738H138.837V36.7158H144.717C144.774 37.033 144.802 37.3364 144.802 37.632V37.634Z" fill="#333333"/>
<path d="M154.123 32.5682H148.599V36.4143H153.582V37.8724H148.599V41.7186H154.123V43.2101H147.04V31.0786H154.123V32.5702V32.5682Z" fill="#333333"/>
<path d="M160.697 43.2082H159.136V32.5663H155.747V31.0747H164.084V32.5663H160.695V43.2082H160.697Z" fill="#333333"/>
<path d="M170.117 43.2082V31.0767H171.675V43.2082H170.117Z" fill="#333333"/>
<path d="M178.591 43.2082H177.031V32.5663H173.642V31.0747H181.978V32.5663H178.589V43.2082H178.591Z" fill="#333333"/>
<path d="M197.761 41.6417C196.569 42.8672 195.085 43.48 193.312 43.48C191.539 43.48 190.055 42.8672 188.865 41.6417C187.673 40.4161 187.078 38.9167 187.078 37.1433C187.078 35.37 187.673 33.8706 188.865 32.645C190.055 31.4194 191.539 30.8047 193.312 30.8047C195.085 30.8047 196.555 31.4214 197.753 32.6529C198.949 33.8844 199.548 35.3799 199.548 37.1433C199.548 38.9068 198.951 40.4161 197.761 41.6417ZM190.017 40.625C190.916 41.5333 192.013 41.9884 193.314 41.9884C194.614 41.9884 195.714 41.5353 196.61 40.625C197.509 39.7166 197.958 38.5541 197.958 37.1433C197.958 35.7326 197.507 34.57 196.61 33.6617C195.714 32.7534 194.614 32.2982 193.314 32.2982C192.013 32.2982 190.916 32.7514 190.017 33.6617C189.121 34.57 188.672 35.7326 188.672 37.1433C188.672 38.5541 189.121 39.7166 190.017 40.625Z" fill="#333333"/>
<path d="M201.737 43.2082V31.0767H203.635L209.53 40.5147H209.597L209.53 38.1759V31.0767H211.09V43.2082H209.463L203.294 33.313H203.227L203.294 35.6518V43.2082H201.735H201.737Z" fill="#333333"/>
<path d="M186.693 60.904C184.298 60.904 182.124 61.8222 180.558 63.3709C179.015 64.8959 178.061 67.0318 178.061 69.5046C178.061 72.1193 179.143 74.3714 180.863 75.9142C182.4 77.2934 184.449 78.1052 186.693 78.1052C188.804 78.1052 190.741 77.386 192.244 76.1545C194.128 74.6098 195.328 72.2591 195.328 69.5046C195.328 67.4653 194.677 65.6545 193.586 64.228C192.008 62.167 189.505 60.9059 186.695 60.9059L186.693 60.904ZM186.693 74.7162C184.087 74.7162 181.84 72.5665 181.84 69.5046C181.84 66.4426 184.089 64.293 186.693 64.293C189.298 64.293 191.546 66.4111 191.546 69.5046C191.546 72.5981 189.298 74.7162 186.693 74.7162ZM167.863 60.904C166.08 60.904 164.419 61.4123 163.041 62.3108C160.744 63.8083 159.231 66.3895 159.231 69.5046C159.231 71.9813 160.2 74.131 161.763 75.662C163.327 77.1929 165.485 78.1052 167.863 78.1052C169.835 78.1052 171.656 77.4786 173.112 76.391C175.167 74.8561 176.495 72.405 176.495 69.5066C176.495 67.8534 176.069 66.352 175.326 65.0811C173.829 62.5216 171.043 60.9059 167.863 60.9059V60.904ZM167.863 74.7162C165.256 74.7162 163.01 72.5665 163.01 69.5046C163.01 66.4426 165.258 64.293 167.863 64.293C170.468 64.293 172.716 66.4111 172.716 69.5046C172.716 72.5981 170.468 74.7162 167.863 74.7162ZM145.46 63.5443V67.1934H154.19C153.93 69.2465 153.247 70.7439 152.202 71.7863C150.931 73.0571 148.945 74.4581 145.46 74.4581C140.085 74.4581 135.882 70.1252 135.882 64.7501C135.882 59.375 140.085 55.0422 145.46 55.0422C148.36 55.0422 150.476 56.183 152.041 57.6489L154.614 55.0756C152.431 52.991 149.533 51.395 145.46 51.395C142.959 51.395 140.593 52.0866 138.56 53.2885C134.607 55.6254 131.908 59.8892 131.908 64.7501C131.908 69.611 134.778 74.1448 138.936 76.4284C140.883 77.4983 143.111 78.1072 145.458 78.1072C149.432 78.1072 152.429 76.8048 154.774 74.3615C157.183 71.9518 157.934 68.5628 157.934 65.8259C157.934 64.9787 157.869 64.1964 157.739 63.5462H145.458L145.46 63.5443ZM237.076 66.3776C236.358 64.4565 234.177 60.9059 229.714 60.9059C227.809 60.9059 226.04 61.5522 224.645 62.695C222.796 64.2083 221.602 66.5924 221.602 69.5066C221.602 74.328 225.251 78.1072 230.138 78.1072C234.079 78.1072 236.36 75.6974 237.304 74.2965L234.372 72.3419C233.395 73.7744 232.059 74.7201 230.138 74.7201C228.217 74.7201 226.847 73.8413 225.969 72.1133L237.468 67.3569L237.078 66.3796L237.076 66.3776ZM225.348 69.2445C225.249 65.9225 227.921 64.228 229.842 64.228C231.342 64.228 232.611 64.9767 233.034 66.0525L229.019 67.7194L225.348 69.2445ZM215.999 77.5831H219.778V52.3053H215.999V77.5831ZM209.81 62.827H209.68C208.832 61.8182 207.203 60.9059 205.152 60.9059C203.101 60.9059 201.252 61.7138 199.771 63.0635C198.049 64.6319 196.91 66.9293 196.91 69.5401C196.91 72.5527 198.449 75.1477 200.653 76.6688C201.976 77.5811 203.538 78.1091 205.15 78.1091C207.203 78.1091 208.83 77.1969 209.678 76.1545H209.808V77.3919C209.808 80.6824 208.048 82.442 205.215 82.442C202.902 82.442 201.469 80.7809 200.882 79.38L197.592 80.7475C198.535 83.0272 201.044 85.829 205.215 85.829C209.646 85.829 213.392 83.2222 213.392 76.8698V61.4281H209.808V62.829L209.81 62.827ZM205.477 74.7162C202.87 74.7162 200.689 72.533 200.689 69.5361C200.689 66.5392 202.872 64.291 205.477 64.291C208.082 64.291 210.07 66.5057 210.07 69.5361C210.07 72.5665 208.05 74.7162 205.477 74.7162ZM254.775 52.3053H245.735V77.5831H249.509V68.0051H254.777C257.181 68.0051 259.563 67.0042 261.153 65.2368C262.328 63.9304 263.07 62.2044 263.07 60.1552C263.07 58.1061 262.349 56.4293 261.203 55.1289C259.613 53.326 257.207 52.3034 254.777 52.3034L254.775 52.3053ZM254.874 64.4881H249.509V55.8224H254.874C257.695 55.8224 259.297 58.1573 259.297 60.1552C259.297 62.1532 257.695 64.4881 254.874 64.4881ZM278.191 60.8587C275.46 60.8587 272.631 62.0625 271.458 64.7284L274.808 66.1274C275.523 64.7284 276.857 64.2733 278.256 64.2733C280.207 64.2733 282.191 65.4437 282.224 67.5244V67.7845C281.541 67.3943 280.079 66.8091 278.29 66.8091C276.737 66.8091 275.172 67.1756 273.894 67.8889C272.199 68.8347 271.005 70.3873 271.005 72.4995C271.005 74.3339 271.876 75.8137 273.202 76.7851C274.321 77.6047 275.764 78.0599 277.283 78.0599C279.819 78.0599 281.217 76.921 282.096 75.5891H282.226V77.5397H285.87V67.8495C285.87 65.1856 284.689 63.2211 282.825 62.0625C281.549 61.2705 279.953 60.8567 278.195 60.8567L278.191 60.8587ZM277.736 74.7122C276.5 74.7122 274.776 74.0936 274.776 72.5665C274.776 70.6159 276.922 69.8671 278.776 69.8671C280.435 69.8671 281.216 70.2257 282.222 70.7124C281.929 73.0532 279.913 74.7122 277.734 74.7122H277.736ZM299.134 61.4104L297.343 65.9481L294.809 72.3695H294.679L290.191 61.4104H286.126L289.373 68.7992L292.858 76.7279L289.02 85.2477H292.955L300.314 68.3362L303.329 61.4084H299.134V61.4104ZM265.149 77.5831H268.922V52.3053H265.149V77.5831Z" fill="#333333"/>
<path d="M103.304 47.8303L73.256 30.1995C71.7191 29.2971 69.9024 29.8133 68.9645 31.0803L94.4137 56.6772L103.306 47.8283L103.304 47.8303Z" fill="url(#paint0_linear_24_342)"/>
<path d="M68.3281 80.1898C68.3281 80.903 68.5468 81.5395 68.9094 82.0577L94.4117 56.6795L68.9626 31.0825C68.5685 31.6145 68.3281 32.2766 68.3281 33.0233V80.1898Z" fill="url(#paint1_linear_24_342)"/>
<path d="M103.152 65.4692L113.451 59.4261C115.605 58.1612 115.605 55.048 113.451 53.783L103.304 47.8306L94.4117 56.6794L103.152 65.4712V65.4692Z" fill="url(#paint2_linear_24_342)"/>
<path d="M68.9094 82.0555C69.8315 83.3756 71.6895 83.9293 73.256 83.0091L103.152 65.469L94.4117 56.6772L68.9094 82.0555Z" fill="url(#paint3_linear_24_342)"/>
</g>
<defs>
<linearGradient id="paint0_linear_24_342" x1="28.251" y1="-5.7556" x2="90.2287" y2="45.1644" gradientUnits="userSpaceOnUse">
<stop stop-color="#32A071"/>
<stop offset="0.07" stop-color="#2DA771"/>
<stop offset="0.48" stop-color="#15CF74"/>
<stop offset="0.8" stop-color="#06E775"/>
<stop offset="1" stop-color="#00F076"/>
</linearGradient>
<linearGradient id="paint1_linear_24_342" x1="112.19" y1="56.3149" x2="65.9124" y2="56.5868" gradientUnits="userSpaceOnUse">
<stop stop-color="#00A1FF"/>
<stop offset="0.26" stop-color="#00BEFF"/>
<stop offset="0.51" stop-color="#00D2FF"/>
<stop offset="0.76" stop-color="#00DFFF"/>
<stop offset="1" stop-color="#00E3FF"/>
</linearGradient>
<linearGradient id="paint2_linear_24_342" x1="118.673" y1="57.8617" x2="76.8992" y2="54.585" gradientUnits="userSpaceOnUse">
<stop stop-color="#FFE000"/>
<stop offset="0.41" stop-color="#FFBD00"/>
<stop offset="0.78" stop-color="#FFA500"/>
<stop offset="1" stop-color="#FF9C00"/>
</linearGradient>
<linearGradient id="paint3_linear_24_342" x1="113.233" y1="51.4814" x2="32.8262" y2="104.858" gradientUnits="userSpaceOnUse">
<stop stop-color="#FF3A44"/>
<stop offset="1" stop-color="#C31162"/>
</linearGradient>
<clipPath id="clip0_24_342">
<rect width="368" height="113.302" fill="white"/>
</clipPath>
</defs>
</svg>
