<svg xmlns="http://www.w3.org/2000/svg" viewBox="480.348 0.456311 95.44 104">
	<path d="M574.33,13.27l-12.31-11.54c-.9-.86-2.11-1.32-3.35-1.27-1.89.06-3.56,1.26-4.23,3.03-.67,1.77-.2,3.77,1.18,5.07l1.37,1.27-7.7,8.21-4.12-3.86c-.89-.92-2.12-1.43-3.4-1.42-1.28,0-2.5.54-3.38,1.48-.88.94-1.33,2.19-1.26,3.47.07,1.27.66,2.47,1.63,3.3l.67.66-21.73,23.16-5.1,5.41-5.19,5.56-5.17,5.43-3.92,4.1c-.68.73-1.04,1.69-1.01,2.68.03,1,.45,1.94,1.18,2.62l.37.36-1.35,2.92c-.68,1.47-.35,3.2.82,4.31l.37.34-17.93,19.07c-.62.76-.55,1.87.16,2.55s1.83.68,2.55.02l18.02-19.07.39.37c.7.65,1.62,1.01,2.57,1.01.62,0,1.23-.15,1.78-.45l2.83-1.52.37.36c.7.65,1.62,1.01,2.57,1.01h.13c.99-.03,1.93-.46,2.6-1.18l41.07-43.67.69.64c.89.92,2.12,1.43,3.4,1.42,1.28,0,2.5-.54,3.38-1.48.88-.94,1.33-2.19,1.26-3.47-.07-1.27-.66-2.47-1.63-3.3l-4.08-3.86,7.7-8.19,1.35,1.29c.87.81,2.01,1.26,3.2,1.26h.15c1.24-.03,2.42-.56,3.28-1.46.86-.9,1.32-2.11,1.27-3.35-.04-1.25-.58-2.42-1.48-3.28h0ZM549.7,31.27l-8.41,8.94c-1.65-.64-3.4-.96-5.17-.97-.49-.03-.97-.03-1.46,0-.07,0-.15,0-.22,0l11.24-11.9,2.04,1.87,1.99,2.06ZM542.88,24.85l-13,13.83c-.32-.13-.64-.22-.94-.37l13.26-14.09.68.64ZM506.21,77.81l-1.72.94-3.5-3.28.82-1.87,2.14,2.15,2.27,2.06ZM512.04,78.15l-1.35-1.29-8.21-7.7-1.35-1.27,2.57-2.74,2.74,2.57c.35.32.8.51,1.27.51.52,0,1.02-.22,1.37-.6.73-.73.73-1.91,0-2.64l-2.72-2.55,2.57-2.74,5.43,5.13c.35.33.82.51,1.29.51.52,0,1.01-.21,1.37-.58.36-.35.55-.83.55-1.33s-.2-.98-.55-1.33l-5.58-5.13,2.55-2.74,2.75,2.59c.35.32.8.51,1.27.51.77,0,1.47-.46,1.75-1.18.29-.72.1-1.53-.46-2.06l-2.75-2.57,2.59-2.74,5.41,5.13c.35.33.82.51,1.29.51.52,0,1.01-.21,1.37-.58.36-.35.55-.83.55-1.33s-.2-.98-.55-1.33l-5.55-5.13,4.61-4.91c2.64,1.54,5.7,2.2,8.73,1.87,2.82-.26,5.63.59,7.83,2.36l-30.8,32.79ZM545.43,42.66c-.24-.19-.47-.39-.73-.58l7.74-8.23.67.64-7.68,8.17ZM560.41,34.93c-.17.19-.41.3-.66.3-.24,0-.48-.09-.66-.26l-5.45-5.11-3.43-3.24-6.82-6.43-1.99-1.87c-.18-.18-.28-.42-.28-.67s.1-.49.28-.67c.18-.19.43-.3.69-.3.24,0,.46.1.64.26l12.25,11.52,5.41,5.1c.18.18.29.42.29.67s-.1.5-.29.67v.02ZM563.9,16.25l-7.7,8.19-4.1-3.75,7.7-8.19.84.77,3.26,2.98ZM571.88,17.33c-.17.18-.41.29-.66.28-.25.01-.49-.07-.67-.24l-7.4-6.89-2.21-2.1-2.66-2.57c-.27-.26-.36-.65-.23-1,.13-.35.45-.59.83-.61.23,0,.46.08.64.24l12.29,11.56c.18.18.28.42.28.67s-.1.49-.28.67h.08Z

M562.03,72.64h-3.75v-1.87c.99,0,1.95-.39,2.65-1.1.7-.7,1.1-1.66,1.1-2.65v-1.87c0-.99-.39-1.95-1.1-2.65-.7-.7-1.66-1.1-2.65-1.1h-22.48c-2.07,0-3.75,1.68-3.75,3.75v1.87c0,.99.39,1.95,1.1,2.65.7.7,1.66,1.1,2.65,1.1v1.87h-3.75c-1.04,0-1.87.84-1.87,1.87v26.23c0,.99.39,1.95,1.1,2.65.7.7,1.66,1.1,2.65,1.1h26.23c.99,0,1.95-.39,2.65-1.1.7-.7,1.1-1.66,1.1-2.65v-26.23c0-.5-.2-.97-.55-1.33s-.83-.55-1.33-.55h0ZM535.79,65.15h22.48v1.87h-22.48v-1.87ZM539.54,70.77h14.99v1.87h-14.99v-1.87ZM533.92,100.75v-24.36h26.23v3.75h-14.99c-1.04,0-1.87.84-1.87,1.87v13.12c0,.5.2.97.55,1.33s.83.55,1.33.55h14.99v3.75h-26.23ZM560.15,83.88v9.37h-13.12v-9.37h13.12Z" fill="#fff"/>
</svg>