<svg xmlns="http://www.w3.org/2000/svg" viewBox="885.88 13.73 121.5 80.89">
	<path d="M968.23,53.13h-11.91l-1.19-1.79c-.98-1.47-2.96-1.86-4.42-.88-.46.31-.84.73-1.08,1.23l-5.07,10.15-5.35-14.98c-.59-1.66-2.42-2.52-4.08-1.93-.84.3-1.51.93-1.86,1.75l-2.77,6.46h-10.11c-.88,0-1.59.71-1.59,1.59s.71,1.59,1.59,1.59h10.11c1.28,0,2.43-.76,2.93-1.93l2.77-6.46,5.35,14.98c.43,1.2,1.54,2.03,2.81,2.11h.19c1.21,0,2.31-.68,2.85-1.76l5.07-10.15,1.19,1.79c.59.89,1.59,1.43,2.65,1.43h11.91c.88,0,1.59-.71,1.59-1.59s-.71-1.59-1.59-1.59Z

M895.69,29.84c.73-2.95,3.04-5.26,5.99-5.99.62-.16,1.06-.72,1.06-1.36s-.44-1.2-1.06-1.36c-2.95-.74-5.26-3.05-5.99-6,0-.78-.63-1.4-1.4-1.4s-1.4.63-1.4,1.4c-.72,2.95-3,5.27-5.95,6.03-.62.16-1.06.72-1.06,1.36s.44,1.2,1.06,1.36c2.93.74,5.21,3.03,5.95,5.96.16.62.72,1.06,1.36,1.06s1.2-.44,1.36-1.06h.08ZM890.81,22.56c1.41-.9,2.6-2.12,3.48-3.55.88,1.43,2.07,2.64,3.48,3.55-1.4.86-2.58,2.02-3.48,3.39-.89-1.37-2.08-2.54-3.48-3.39Z


M910.3,33.54c.41-1.68,1.73-2.99,3.41-3.41.36-.09.6-.41.6-.77s-.25-.68-.6-.77c-1.68-.42-2.99-1.73-3.41-3.42,0-.44-.36-.8-.8-.8s-.8.36-.8.8c-.41,1.68-1.71,3-3.38,3.43-.36.09-.6.41-.6.77s.25.68.6.77c1.67.42,2.97,1.72,3.38,3.39.09.36.41.6.77.6s.68-.25.77-.6h.05ZM907.52,29.4c.8-.51,1.48-1.21,1.98-2.02.5.81,1.18,1.5,1.98,2.02-.79.49-1.47,1.15-1.98,1.93-.51-.78-1.19-1.44-1.98-1.93Z

M988.53,42.61c-.77,3.74-2.59,7.3-5.46,10.23h0l-37.62,38.1c-.3.31-.71.48-1.14.48-.43,0-.84-.17-1.14-.48l-37.62-38.1c-7.87-8-7.87-20.83,0-28.82,7.7-7.85,20.31-7.96,28.16-.26.09.09.17.17.26.26l8.07,8.17c1.27,1.22,3.27,1.22,4.54,0l8.07-8.16c3.75-3.82,8.88-5.96,14.23-5.95h.01c4.38,0,8.6,1.44,12.04,4.06.66-.84,1.41-1.6,2.26-2.27-4.05-3.21-9.09-4.99-14.31-4.98h0c-6.2-.01-12.15,2.48-16.49,6.9l-8.07,8.17-8.07-8.17c-8.94-9.1-23.57-9.23-32.67-.29-.1.1-.19.19-.29.29-9.09,9.24-9.09,24.07,0,33.31l37.62,38.1c.9.91,2.12,1.43,3.41,1.42,1.28,0,2.51-.51,3.41-1.43l37.62-38.1c3.38-3.43,5.5-7.64,6.37-12.04-1.09-.03-2.15-.18-3.17-.43Z


M999.05,25.75h-3.47v-3.4c0-.37-.15-.72-.41-.98s-.61-.41-.98-.41h-4.16c-.77,0-1.39.62-1.39,1.39v3.47h-3.47c-.77,0-1.39.62-1.39,1.39v4.16c0,.37.15.72.41.98s.61.41.98.41h3.47v3.47c0,.37.15.72.41.98s.61.41.98.41h4.16c.37,0,.72-.15.98-.41s.41-.61.41-.98v-3.47h3.47c.37,0,.72-.15.98-.41s.41-.61.41-.98v-4.16c.02-.38-.12-.75-.38-1.03-.26-.27-.62-.43-1-.43h0ZM997.66,29.91h-3.47c-.77,0-1.39.62-1.39,1.39v3.53h-1.39v-3.47c0-.37-.15-.72-.41-.98s-.61-.41-.98-.41h-3.47v-1.39h3.47c.37,0,.72-.15.98-.41s.41-.61.41-.98v-3.47h1.39v3.47c0,.37.15.72.41.98s.61.41.98.41h3.47v1.32Z


M1007.37,29.29h0s0,0,0,0c0-.44-.03-.87-.07-1.29-.01-.15-.03-.31-.04-.46-.04-.37-.1-.73-.17-1.08-.04-.22-.1-.45-.15-.67-.04-.16-.08-.31-.12-.47-.13-.49-.29-.97-.47-1.44-.01-.03-.02-.07-.04-.1-.11-.28-.23-.55-.35-.82-.01-.03-.02-.05-.04-.08-.24-.51-.51-1.01-.8-1.49-.03-.05-.06-.09-.08-.14-.46-.73-.98-1.43-1.56-2.08-.06-.06-.12-.13-.17-.19-.58-.63-1.22-1.22-1.92-1.75-.06-.05-.13-.09-.19-.14-.22-.16-.44-.32-.66-.47-.51-.34-1.04-.64-1.58-.92-.07-.03-.14-.06-.2-.1-.45-.22-.9-.41-1.36-.58-.11-.04-.21-.08-.32-.12-.24-.08-.49-.16-.73-.23-.23-.07-.46-.12-.7-.18-.27-.06-.54-.12-.81-.17-.27-.05-.55-.09-.83-.13-.14-.02-.28-.04-.41-.05-.43-.04-.86-.06-1.29-.07-.09,0-.19,0-.28,0-.47,0-.93.02-1.39.07-.03,0-.06,0-.09.01-7.64.81-13.6,7.27-13.6,15.12,0,3.1.93,5.98,2.53,8.39.08.11.16.23.24.34.13.19.27.36.41.54.82,1.05,1.77,2,2.86,2.81,3.81,2.86,8.73,3.77,13.31,2.47,0,.03,0,.05,0,.08.97-.27,1.89-.64,2.77-1.09,0-.02,0-.04,0-.06,2.49-1.27,4.58-3.2,6.05-5.58,1.08-1.75,1.79-3.7,2.1-5.73,0-.06.02-.11.03-.17.04-.26.06-.53.09-.8.03-.4.06-.8.06-1.2,0,0,0-.01,0-.01,0,0,0,0,0,0ZM992.12,41.77h0c-5.05,0-9.6-3.04-11.53-7.7-1.93-4.66-.86-10.03,2.7-13.6,3.57-3.57,8.93-4.63,13.6-2.7,4.66,1.93,7.7,6.48,7.7,11.53,0,6.89-5.59,12.48-12.48,12.48Z

" fill="#fff"/>
</svg>