<svg xmlns="http://www.w3.org/2000/svg" width="400" height="400" viewBox="0 0 124 124" fill="none">
<g xmlns="http://www.w3.org/2000/svg">
      <path d="M94.1,15.85h-4.71v-4.61c0-.5-.2-.98-.55-1.33s-.83-.55-1.33-.55h-5.65c-1.04,0-1.88.84-1.88,1.88v4.71h-4.71c-1.04,0-1.88.84-1.88,1.88v5.65c0,.5.2.98.55,1.33s.83.55,1.33.55h4.71v4.71c0,.5.2.98.55,1.33s.83.55,1.33.55h5.65c.5,0,.98-.2,1.33-.55s.55-.83.55-1.33v-4.71h4.71c.5,0,.98-.2,1.33-.55s.55-.83.55-1.33v-5.65c.02-.52-.16-1.02-.52-1.39-.35-.37-.85-.58-1.36-.58h0ZM92.21,21.5h-4.71c-1.04,0-1.88.84-1.88,1.88v4.8h-1.88v-4.71c0-.5-.2-.98-.55-1.33s-.83-.55-1.33-.55h-4.71v-1.88h4.71c.5,0,.98-.2,1.33-.55s.55-.83.55-1.33v-4.71h1.88v4.71c0,.5.2.98.55,1.33s.83.55,1.33.55h4.71v1.79Z" fill="#fff"/>
      <path d="M105.39,20.65c-.02-6.92-3.49-13.38-9.26-17.2-5.77-3.83-13.07-4.51-19.45-1.83-6.38,2.68-11.01,8.37-12.32,15.16-4.14,1.03-8.07,2.72-11.67,5.01-6.98-4.37-16.69-8.15-25.93-4.1-.18-.44-.32-.89-.41-1.36-.21-.84-.96-1.43-1.83-1.43s-1.61.59-1.83,1.43c-.75,3.07-3.14,5.46-6.21,6.21-.84.21-1.43.96-1.43,1.83s.59,1.61,1.43,1.83h.13c-1,1.37-1.91,2.79-2.73,4.27-6.19,11.1-.6,25.26,3.26,32.69,4.63,8.63,7.47,18.1,8.36,27.85.56,6.81,4.16,14.34,8.38,14.34,2.75,0,4.18-3.76,7.04-11.05,2.86-7.28,7.23-18.69,11.78-18.69s8.9,11.2,11.78,18.6,4.29,11.14,7.04,11.14c4.22,0,7.81-7.53,8.38-14.25.89-9.75,3.73-19.23,8.36-27.85,2.65-5.19,6.81-14.93,5.85-24.28,3.38-1.73,6.22-4.34,8.21-7.58,1.99-3.23,3.06-6.94,3.08-10.74h0ZM24.46,21.36c.83,1.19,1.86,2.22,3.05,3.05-1.18.8-2.22,1.8-3.05,2.95-.83-1.16-1.87-2.16-3.05-2.95,1.2-.86,2.23-1.92,3.05-3.14v.09ZM84.89,61.41c-4.85,9.08-7.83,19.04-8.77,29.28-.47,5.65-3.09,9.94-4.33,10.67-1.51-2.72-2.77-5.58-3.76-8.53-3.67-9.35-8.21-21-15.34-21s-11.67,11.65-15.3,21c-.99,2.95-2.25,5.81-3.76,8.53-1.24-.75-3.86-4.99-4.33-10.67-.94-10.25-3.92-20.21-8.77-29.28-2.84-5.46-8.85-19.2-3.33-29.12.84-1.5,1.79-2.93,2.84-4.29,1.26,1.14,2.15,2.64,2.54,4.29.21.84.96,1.43,1.83,1.43s1.61-.59,1.83-1.43c.75-3.03,3.12-5.41,6.15-6.15.84-.21,1.43-.96,1.43-1.83s-.59-1.61-1.43-1.83c-1.22-.32-2.36-.9-3.33-1.71,7.96-2.95,16.52.85,22.58,4.8,2.58,1.65,5,3.54,7.23,5.65.35.36.83.56,1.34.56s.98-.2,1.34-.56c.36-.35.56-.83.56-1.34s-.2-.98-.56-1.34c-1.71-1.63-3.53-3.15-5.44-4.54,2.48-1.44,5.13-2.56,7.89-3.37.05,6.46,3.11,12.53,8.28,16.41,5.17,3.88,11.85,5.12,18.07,3.35.55,8.06-3.07,16.47-5.44,21h0ZM84.69,37.59c-6.85,0-13.03-4.13-15.65-10.45-2.62-6.33-1.17-13.62,3.67-18.46,4.85-4.84,12.13-6.29,18.46-3.67,6.33,2.62,10.45,8.8,10.45,15.65,0,9.35-7.58,16.94-16.94,16.94h0Z" fill="#fff"/>
      <path d="M13.17,22.89c.98-3.96,4.07-7.06,8.04-8.04.84-.21,1.43-.96,1.43-1.83s-.59-1.61-1.43-1.83c-3.96-.99-7.05-4.09-8.04-8.06,0-1.04-.84-1.88-1.88-1.88s-1.88.84-1.88,1.88c-.96,3.96-4.03,7.08-7.98,8.09-.84.21-1.43.96-1.43,1.83s.59,1.61,1.43,1.83c3.93.99,7,4.07,7.98,8,.21.84.96,1.43,1.83,1.43s1.61-.59,1.83-1.43h.11ZM6.62,13.12c1.9-1.21,3.49-2.84,4.67-4.76,1.18,1.92,2.77,3.55,4.67,4.76-1.87,1.15-3.47,2.71-4.67,4.55-1.2-1.84-2.79-3.4-4.67-4.55Z" fill="#fff"/>
    </g>

</svg>