<svg width="341" height="71" viewBox="0 0 341 71" fill="none" xmlns="http://www.w3.org/2000/svg">
<g clip-path="url(#clip0_11_37)">
<path d="M93.7631 51.2H96.3502L99.2192 55.7647L102.088 51.2H104.675V61.9978H102.291V54.9477L99.2192 59.5613H99.1549L96.1128 54.9966V61.9978H93.7582V51.2H93.7631Z" fill="white"/>
<path d="M106.985 59.0819V53.7295H109.355V58.3431C109.355 59.4537 109.884 60.0261 110.789 60.0261C111.695 60.0261 112.273 59.4537 112.273 58.3431V53.7295H114.643V61.9978H112.273V60.8236C111.729 61.5183 111.027 62.1495 109.825 62.1495C108.029 62.1495 106.985 60.9753 106.985 59.0819Z" fill="white"/>
<path d="M116.359 57.9125V57.8832C116.359 55.525 118.185 53.5778 120.742 53.5778C122.315 53.5778 123.299 54.1013 124.081 54.9673L122.632 56.5084C122.102 55.9555 121.573 55.5984 120.727 55.5984C119.54 55.5984 118.699 56.6307 118.699 57.8489V57.8783C118.699 59.1406 119.525 60.1631 120.821 60.1631C121.618 60.1631 122.162 59.8255 122.74 59.2824L124.13 60.6719C123.319 61.5526 122.384 62.1837 120.717 62.1837C118.209 62.1837 116.364 60.2707 116.364 57.9125H116.359Z" fill="white"/>
<path d="M125.669 50.7401H128.038V54.9037C128.582 54.2089 129.285 53.5778 130.487 53.5778C132.282 53.5778 133.326 54.752 133.326 56.6454V61.9978H130.957V57.3842C130.957 56.2736 130.427 55.7011 129.522 55.7011C128.617 55.7011 128.038 56.2736 128.038 57.3842V61.9978H125.669V50.7401Z" fill="white"/>
<path d="M134.889 59.6249V59.5956C134.889 57.7902 136.279 56.9585 138.258 56.9585C139.099 56.9585 139.707 57.0955 140.301 57.2961V57.1591C140.301 56.1855 139.692 55.6473 138.505 55.6473C137.6 55.6473 136.962 55.8186 136.195 56.0925L135.602 54.3019C136.522 53.9007 137.427 53.6365 138.847 53.6365C140.143 53.6365 141.077 53.9741 141.671 54.5612C142.294 55.1776 142.576 56.0877 142.576 57.1983V61.9929H140.286V61.0976C139.707 61.7287 138.916 62.1446 137.758 62.1446C136.185 62.1446 134.889 61.2492 134.889 59.6151V59.6249ZM140.331 59.0819V58.666C139.925 58.4801 139.396 58.3578 138.817 58.3578C137.803 58.3578 137.18 58.759 137.18 59.4977V59.5271C137.18 60.1582 137.709 60.53 138.476 60.53C139.584 60.53 140.331 59.9283 140.331 59.0819Z" fill="white"/>
<path d="M143.961 60.9019L144.975 59.3608C145.881 60.0066 146.83 60.349 147.612 60.349C148.3 60.349 148.611 60.1044 148.611 59.7326V59.7032C148.611 59.1944 147.8 59.0232 146.88 58.7443C145.713 58.4067 144.387 57.8636 144.387 56.2638V56.2344C144.387 54.5514 145.757 53.6121 147.444 53.6121C148.502 53.6121 149.66 53.9692 150.56 54.571L149.655 56.1904C148.829 55.7109 148.003 55.4174 147.394 55.4174C146.816 55.4174 146.519 55.662 146.519 55.9898V56.0192C146.519 56.484 147.315 56.6992 148.22 57.0075C149.388 57.394 150.748 57.9468 150.748 59.4586V59.488C150.748 61.3226 149.358 62.1544 147.553 62.1544C146.385 62.1544 145.074 61.7679 143.966 60.9068L143.961 60.9019Z" fill="white"/>
<path d="M157.124 53.7295H159.494V55.3929C159.979 54.253 160.755 53.5093 162.16 53.5729V56.0241H162.036C160.463 56.0241 159.494 56.9634 159.494 58.94V61.9929H157.124V53.7246V53.7295Z" fill="white"/>
<path d="M162.754 59.6249V59.5956C162.754 57.7902 164.144 56.9585 166.122 56.9585C166.963 56.9585 167.572 57.0955 168.165 57.2961V57.1591C168.165 56.1855 167.557 55.6473 166.37 55.6473C165.464 55.6473 164.826 55.8186 164.06 56.0925L163.466 54.3019C164.386 53.9007 165.291 53.6365 166.711 53.6365C168.007 53.6365 168.942 53.9741 169.535 54.5612C170.159 55.1776 170.441 56.0877 170.441 57.1983V61.9929H168.15V61.0976C167.572 61.7287 166.78 62.1446 165.623 62.1446C164.05 62.1446 162.754 61.2492 162.754 59.6151V59.6249ZM168.2 59.0819V58.666C167.794 58.4801 167.265 58.3578 166.686 58.3578C165.672 58.3578 165.049 58.759 165.049 59.4977V59.5271C165.049 60.1582 165.578 60.53 166.345 60.53C167.453 60.53 168.2 59.9283 168.2 59.0819Z" fill="white"/>
<path d="M172.207 60.349L176.525 55.6278H172.345V53.7295H179.473V55.3782L175.14 60.0995H179.473V61.9978H172.207V60.349Z" fill="white"/>
<path d="M180.626 57.9125V57.8832C180.626 55.5054 182.56 53.5778 185.162 53.5778C187.764 53.5778 189.668 55.4761 189.668 57.8489V57.8783C189.668 60.2512 187.734 62.1837 185.132 62.1837C182.53 62.1837 180.626 60.2854 180.626 57.9125ZM187.333 57.9125V57.8832C187.333 56.665 186.443 55.5984 185.132 55.5984C183.821 55.5984 182.965 56.6307 182.965 57.8489V57.8783C182.965 59.0965 183.856 60.1631 185.167 60.1631C186.478 60.1631 187.333 59.1308 187.333 57.9125Z" fill="white"/>
<path d="M191.39 53.7295H193.759V54.9037C194.303 54.2089 195.006 53.5778 196.208 53.5778C198.003 53.5778 199.047 54.752 199.047 56.6454V61.9978H196.678V57.3842C196.678 56.2736 196.148 55.7011 195.243 55.7011C194.338 55.7011 193.759 56.2736 193.759 57.3842V61.9978H191.39V53.7295Z" fill="white"/>
<path d="M200.699 57.9125V57.8832C200.699 55.525 202.401 53.5778 204.83 53.5778C207.619 53.5778 208.901 55.7207 208.901 58.0642C208.901 58.2501 208.886 58.4654 208.871 58.6807H203.054C203.286 59.7472 204.038 60.3001 205.097 60.3001C205.893 60.3001 206.467 60.0555 207.125 59.4537L208.48 60.6426C207.699 61.5966 206.576 62.1837 205.067 62.1837C202.554 62.1837 200.699 60.442 200.699 57.9125ZM206.595 57.2178C206.457 56.1708 205.829 55.4614 204.834 55.4614C203.84 55.4614 203.212 56.1561 203.024 57.2178H206.595Z" fill="white"/>
<path d="M210.009 60.9019L211.023 59.3608C211.928 60.0066 212.878 60.349 213.659 60.349C214.347 60.349 214.658 60.1044 214.658 59.7326V59.7032C214.658 59.1944 213.847 59.0232 212.927 58.7443C211.76 58.4067 210.434 57.8636 210.434 56.2638V56.2344C210.434 54.5514 211.804 53.6121 213.491 53.6121C214.55 53.6121 215.707 53.9692 216.607 54.571L215.702 56.1904C214.876 55.7109 214.05 55.4174 213.442 55.4174C212.863 55.4174 212.566 55.662 212.566 55.9898V56.0192C212.566 56.484 213.362 56.6992 214.268 57.0075C215.435 57.394 216.795 57.9468 216.795 59.4586V59.488C216.795 61.3226 215.405 62.1544 213.6 62.1544C212.432 62.1544 211.122 61.7679 210.014 60.9068L210.009 60.9019Z" fill="white"/>
<path d="M223.172 53.7295H225.541V54.9183C226.12 54.1453 226.911 53.5778 228.148 53.5778C230.097 53.5778 231.952 55.0896 231.952 57.8489V57.8783C231.952 60.6377 230.127 62.1495 228.148 62.1495C226.886 62.1495 226.105 61.577 225.541 60.9165V64.4636H223.172V53.7295ZM229.582 57.8783V57.8489C229.582 56.4741 228.647 55.5641 227.539 55.5641C226.431 55.5641 225.511 56.4741 225.511 57.8489V57.8783C225.511 59.2531 226.431 60.1631 227.539 60.1631C228.647 60.1631 229.582 59.2678 229.582 57.8783Z" fill="white"/>
<path d="M233.198 59.6249V59.5956C233.198 57.7902 234.588 56.9585 236.567 56.9585C237.408 56.9585 238.016 57.0955 238.61 57.2961V57.1591C238.61 56.1855 238.002 55.6473 236.814 55.6473C235.909 55.6473 235.271 55.8186 234.504 56.0925L233.911 54.3019C234.831 53.9007 235.736 53.6365 237.156 53.6365C238.452 53.6365 239.387 53.9741 239.98 54.5612C240.603 55.1776 240.885 56.0877 240.885 57.1983V61.9929H238.595V61.0976C238.016 61.7287 237.225 62.1446 236.067 62.1446C234.494 62.1446 233.198 61.2492 233.198 59.6151V59.6249ZM238.64 59.0819V58.666C238.234 58.4801 237.705 58.3578 237.126 58.3578C236.112 58.3578 235.489 58.759 235.489 59.4977V59.5271C235.489 60.1582 236.018 60.53 236.785 60.53C237.893 60.53 238.64 59.9283 238.64 59.0819Z" fill="white"/>
<path d="M242.928 53.7295H245.298V55.3929C245.783 54.253 246.559 53.5093 247.964 53.5729V56.0241H247.84C246.267 56.0241 245.298 56.9634 245.298 58.94V61.9929H242.928V53.7246V53.7295Z" fill="white"/>
<path d="M248.563 59.6249V59.5956C248.563 57.7902 249.953 56.9585 251.931 56.9585C252.772 56.9585 253.381 57.0955 253.974 57.2961V57.1591C253.974 56.1855 253.366 55.6473 252.179 55.6473C251.273 55.6473 250.635 55.8186 249.868 56.0925L249.275 54.3019C250.195 53.9007 251.1 53.6365 252.52 53.6365C253.816 53.6365 254.751 53.9741 255.344 54.5612C255.968 55.1776 256.25 56.0877 256.25 57.1983V61.9929H253.959V61.0976C253.381 61.7287 252.589 62.1446 251.432 62.1446C249.859 62.1446 248.563 61.2492 248.563 59.6151V59.6249ZM254.004 59.0819V58.666C253.598 58.4801 253.069 58.3578 252.49 58.3578C251.476 58.3578 250.853 58.759 250.853 59.4977V59.5271C250.853 60.1582 251.382 60.53 252.149 60.53C253.257 60.53 254.004 59.9283 254.004 59.0819Z" fill="white"/>
<path d="M262.566 57.9125V57.8832C262.566 55.525 264.392 53.5778 266.949 53.5778C268.522 53.5778 269.507 54.1013 270.288 54.9673L268.839 56.5084C268.309 55.9555 267.78 55.5984 266.934 55.5984C265.747 55.5984 264.906 56.6307 264.906 57.8489V57.8783C264.906 59.1406 265.732 60.1631 267.028 60.1631C267.825 60.1631 268.369 59.8255 268.948 59.2824L270.338 60.6719C269.526 61.5526 268.591 62.1837 266.924 62.1837C264.412 62.1837 262.571 60.2707 262.571 57.9125H262.566Z" fill="white"/>
<path d="M271.238 57.9125V57.8832C271.238 55.5054 273.172 53.5778 275.774 53.5778C278.376 53.5778 280.28 55.4761 280.28 57.8489V57.8783C280.28 60.2512 278.346 62.1837 275.744 62.1837C273.142 62.1837 271.238 60.2854 271.238 57.9125ZM277.941 57.9125V57.8832C277.941 56.665 277.05 55.5984 275.739 55.5984C274.428 55.5984 273.573 56.6307 273.573 57.8489V57.8783C273.573 59.0965 274.463 60.1631 275.774 60.1631C277.085 60.1631 277.941 59.1308 277.941 57.9125Z" fill="white"/>
<path d="M281.997 53.7295H284.366V54.9037C284.91 54.2089 285.628 53.5778 286.83 53.5778C287.923 53.5778 288.749 54.0573 289.184 54.889C289.916 54.0426 290.792 53.5778 291.93 53.5778C293.691 53.5778 294.754 54.6248 294.754 56.616V61.9978H292.385V57.3842C292.385 56.2736 291.885 55.7011 290.995 55.7011C290.104 55.7011 289.56 56.2736 289.56 57.3842V61.9978H287.191V57.3842C287.191 56.2736 286.691 55.7011 285.801 55.7011C284.91 55.7011 284.366 56.2736 284.366 57.3842V61.9978H281.997V53.7295Z" fill="white"/>
<path d="M296.812 53.7295H299.181V54.9183C299.76 54.1453 300.552 53.5778 301.788 53.5778C303.737 53.5778 305.592 55.0896 305.592 57.8489V57.8783C305.592 60.6377 303.767 62.1495 301.788 62.1495C300.527 62.1495 299.745 61.577 299.181 60.9165V64.4636H296.812V53.7295ZM303.223 57.8783V57.8489C303.223 56.4741 302.288 55.5641 301.18 55.5641C300.072 55.5641 299.152 56.4741 299.152 57.8489V57.8783C299.152 59.2531 300.072 60.1631 301.18 60.1631C302.288 60.1631 303.223 59.2678 303.223 57.8783Z" fill="white"/>
<path d="M306.839 59.6249V59.5956C306.839 57.7902 308.229 56.9585 310.207 56.9585C311.048 56.9585 311.657 57.0955 312.25 57.2961V57.1591C312.25 56.1855 311.642 55.6473 310.455 55.6473C309.549 55.6473 308.911 55.8186 308.145 56.0925L307.551 54.3019C308.471 53.9007 309.376 53.6365 310.796 53.6365C312.092 53.6365 313.027 53.9741 313.621 54.5612C314.244 55.1776 314.526 56.0877 314.526 57.1983V61.9929H312.235V61.0976C311.657 61.7287 310.865 62.1446 309.708 62.1446C308.135 62.1446 306.839 61.2492 306.839 59.6151V59.6249ZM312.28 59.0819V58.666C311.874 58.4801 311.345 58.3578 310.766 58.3578C309.752 58.3578 309.129 58.759 309.129 59.4977V59.5271C309.129 60.1582 309.658 60.53 310.425 60.53C311.533 60.53 312.28 59.9283 312.28 59.0819Z" fill="white"/>
<path d="M316.574 53.7295H318.943V55.3929C319.428 54.253 320.204 53.5093 321.609 53.5729V56.0241H321.486C319.913 56.0241 318.943 56.9634 318.943 58.94V61.9929H316.574V53.7246V53.7295Z" fill="white"/>
<path d="M323.479 59.6543V55.7354H322.48V53.7295H323.479V51.6159H325.849V53.7295H327.812V55.7354H325.849V59.2678C325.849 59.806 326.081 60.0701 326.61 60.0701C327.046 60.0701 327.436 59.9625 327.783 59.7766V61.6602C327.283 61.9538 326.704 62.1397 325.913 62.1397C324.463 62.1397 323.479 61.5673 323.479 59.6543Z" fill="white"/>
<path d="M329.608 50.7401H332.101V52.8244H329.608V50.7401ZM329.672 53.7295H332.042V61.9978H329.672V53.7295Z" fill="white"/>
<path d="M334.273 53.7295H336.642V55.3929C337.127 54.253 337.903 53.5093 339.308 53.5729V56.0241H339.185C337.612 56.0241 336.642 56.9634 336.642 58.94V61.9929H334.273V53.7246V53.7295Z" fill="white"/>
<path d="M116.809 14.4035C115.662 12.6715 114.01 11.3065 111.902 10.328C109.785 9.34462 107.292 8.84558 104.512 8.84558H93.5603V42.4473H102.405V32.6574H104.512C107.332 32.6574 109.83 32.1388 111.952 31.126C114.054 30.1182 115.691 28.6651 116.829 26.806C117.967 24.9517 118.536 22.7696 118.536 20.3283C118.536 18.1267 117.957 16.1305 116.809 14.4084V14.4035Z" fill="white"/>
<path d="M143.16 34.1839V42.4425H121.247V8.84076H130.096V34.1839H143.16Z" fill="white"/>
<path d="M211.755 8.84076V32.4911C211.72 34.2573 211.7 35.9942 211.7 37.638V42.4425H199.913L189.149 18.7187V42.4425H180.898V8.84076H192.69L203.504 32.0753V8.84076H211.755Z" fill="white"/>
<path d="M148.651 33.1173C148.502 33.5185 148.344 33.9295 148.186 34.3356C147.157 37.046 146.118 39.7467 145.074 42.4474H153.771C154.216 41.1508 154.671 39.8543 155.126 38.5578C155.457 38.7829 155.799 38.9932 156.145 39.1987C156.926 39.6635 157.743 40.0843 158.584 40.4561C161.482 41.7428 164.693 42.4522 168.071 42.4522H179.038C178.751 41.6939 178.464 40.9307 178.172 40.1723C177.326 37.9414 176.485 35.7251 175.64 33.5039C175.461 33.0391 175.288 32.5841 175.11 32.1193C173.755 28.5429 172.404 24.9469 171.039 21.3362C169.684 17.7255 168.323 14.1198 166.948 10.5091C166.815 10.1764 166.696 9.8535 166.597 9.55016C166.518 9.32511 166.434 9.09027 166.335 8.84564H157.97C156.912 11.6588 155.843 14.4671 154.79 17.1971C153.998 19.2471 153.207 21.2922 152.42 23.3323C152.094 22.0799 151.925 20.7638 151.925 19.4134H144.768C144.768 24.2668 146.291 28.7728 148.893 32.4862L148.646 33.1173H148.651ZM158.579 28.6211L158.964 27.4959C159.212 26.7962 159.454 26.0917 159.697 25.3823C160.345 23.4644 161.007 21.5417 161.685 19.6189L162.007 18.704L162.338 19.6189C162.838 21.0084 163.352 22.3979 163.872 23.7873C164.386 25.1817 164.9 26.5859 165.38 27.9655C165.865 29.3599 166.36 30.7494 166.859 32.1388L167.146 32.9461L168.14 35.3826H168.076C167.878 35.3826 167.68 35.3826 167.483 35.3728C166.8 35.3532 166.127 35.2847 165.469 35.1722C163.308 34.8248 161.28 34.0518 159.499 32.9314C159.093 32.6819 158.707 32.4128 158.331 32.1291C158.074 31.9334 157.822 31.7328 157.574 31.5224L158.584 28.626L158.579 28.6211Z" fill="white"/>
<path d="M241.524 24.1346C240.47 22.3733 238.946 20.9888 237.002 20.0249C236.023 19.5406 234.959 19.1785 233.812 18.9388C232.669 18.6942 231.447 18.5719 230.146 18.5719H222.182V42.4571H230.003C232.55 42.4571 234.841 41.958 236.824 40.9795C238.798 40.001 240.356 38.5822 241.449 36.7622C242.552 34.9373 243.111 32.7552 243.111 30.265C243.111 27.9704 242.577 25.9057 241.524 24.1395V24.1346ZM235.612 33.6897C235.039 34.6388 234.237 35.3629 233.223 35.8522C232.224 36.3365 231.066 36.5812 229.795 36.5812H228.474V24.438H229.939C231.254 24.438 232.422 24.6875 233.406 25.1719C234.395 25.6562 235.162 26.3509 235.687 27.2267C236.211 28.0976 236.473 29.1201 236.473 30.2601C236.473 31.5957 236.186 32.7503 235.617 33.6897H235.612Z" fill="#91C03D"/>
<path d="M250.922 24.0858V27.4372H258.777V32.951H250.922V36.9335H259.776V42.4522H244.699V18.567H259.776V24.0858H250.922Z" fill="#91C03D"/>
<path d="M283.496 18.567V35.3777C283.471 36.6351 283.456 37.868 283.456 39.0373V42.4522H275.076L267.419 25.5878V42.4522H261.557V18.567H269.942L277.629 35.0841V18.567H283.496Z" fill="#91C03D"/>
<path d="M304.835 18.567V24.4381H298.509L298.266 24.4576V42.4522H291.865V24.4381H285.257V18.567H304.835Z" fill="#91C03D"/>
<path d="M341 36.5861V42.4571H325.423V18.567H331.715V36.5861H341Z" fill="#91C03D"/>
<path d="M300.032 42.4082H306.215C306.532 41.4884 306.853 40.5686 307.18 39.6537C307.412 39.8152 307.655 39.962 307.902 40.1087C308.461 40.4365 309.04 40.735 309.638 40.9992C311.701 41.9092 313.982 42.4131 316.386 42.4131H324.181C323.979 41.8749 323.771 41.3319 323.568 40.7937C322.965 39.2134 322.366 37.6429 321.768 36.0675C321.644 35.7397 321.515 35.4119 321.392 35.0841C320.427 32.5498 319.467 30.0008 318.498 27.442C317.533 24.8833 316.564 22.3294 315.589 19.7657C315.495 19.5309 315.411 19.3009 315.337 19.0856C315.283 18.9242 315.218 18.7627 315.149 18.5866H309.203C308.451 20.5827 300.774 40.4903 300.032 42.4033V42.4082ZM309.634 32.6085L309.906 31.811C310.079 31.312 310.252 30.8179 310.425 30.3139C310.885 28.9538 311.355 27.5888 311.84 26.2287L312.067 25.578L312.3 26.2287C312.656 27.217 313.017 28.1955 313.393 29.1838C313.759 30.1721 314.125 31.1652 314.466 32.1437C314.813 33.132 315.164 34.1154 315.52 35.1037L315.723 35.6761L316.43 37.4032H316.386C316.247 37.4032 316.104 37.4032 315.965 37.3934C315.48 37.3787 315.001 37.3298 314.536 37.2515C312.997 37.0069 311.558 36.454 310.291 35.6663C310.005 35.4902 309.727 35.2994 309.46 35.0988C309.277 34.9618 309.094 34.8199 308.921 34.6683L309.638 32.6134L309.634 32.6085Z" fill="#91C03D"/>
<path d="M101.148 17.1776V18.6209H104.532V20.9986H101.148V22.7159H104.962V25.0937H98.4673V14.7998H104.962V17.1776H101.148Z" fill="#2F2151"/>
<path d="M113.322 22.5642V25.0937H106.609V14.7998H109.32V22.5642H113.322Z" fill="#2F2151"/>
<path d="M30.3178 69.7524C29.2197 70.8385 27.434 70.8385 26.3358 69.7524C25.2377 68.6663 25.2377 66.9001 26.3358 65.8139C26.8701 65.2904 27.5725 64.9969 28.3293 64.9969C29.0812 64.9969 29.7886 65.2855 30.3228 65.8139C31.4209 66.9001 31.4209 68.6663 30.3228 69.7524H30.3178Z" fill="#886AAB"/>
<path d="M24.0702 60.7943C24.0702 61.5379 23.7784 62.2375 23.2441 62.761C22.7099 63.2894 22.0075 63.5781 21.2507 63.5781C20.4988 63.5781 19.7914 63.2894 19.2621 62.761C18.7279 62.2375 18.436 61.5379 18.436 60.7943C18.436 60.0506 18.7279 59.351 19.2621 58.8226C19.7914 58.2991 20.4988 58.0055 21.2507 58.0055C22.0025 58.0055 22.7099 58.2942 23.2441 58.8226C23.7734 59.351 24.0702 60.0457 24.0702 60.7943Z" fill="#886AAB"/>
<path d="M39.8648 70.3297C39.4147 70.775 38.826 71 38.2374 71L36.6099 67.1154C40.6513 63.1182 40.6513 56.6014 36.6099 52.6042C34.5818 50.5983 31.9304 49.6002 29.2691 49.6002C28.2501 49.6002 27.2262 49.747 26.2468 50.0405C26.8997 48.5092 27.335 46.8653 27.518 45.1529C28.1017 45.0844 28.6854 45.0502 29.2691 45.0502C32.3855 45.0502 35.5019 46.0042 38.1285 47.9074L38.2769 48.015C38.5589 48.2254 38.8359 48.4456 39.0981 48.6755C39.2267 48.7831 39.3504 48.8908 39.4691 49.0082C39.6026 49.1305 39.7362 49.2528 39.8599 49.38C40.3941 49.9084 40.8937 50.4808 41.3488 51.0924C41.5318 51.337 41.7099 51.5914 41.8731 51.8459C45.5979 57.5799 44.9301 65.3198 39.8599 70.3297H39.8648Z" fill="#886AAB"/>
<path d="M25.1882 44.1304C25.1783 44.3799 25.1585 44.6294 25.1288 44.8789C25.1041 45.1333 25.0694 45.3926 25.0299 45.6519C24.9458 46.1608 24.8369 46.6696 24.6984 47.1735C24.1494 49.1892 23.1996 51.0337 21.9135 52.6189C21.5376 53.0934 21.127 53.5338 20.6867 53.9594C20.4295 54.204 20.1673 54.4438 19.8903 54.6688C19.2225 55.2266 18.4954 55.7256 17.7237 56.1659C15.4186 57.4869 12.8562 58.1572 10.2642 58.1572H10.2593C8.9583 58.1572 7.6524 57.9908 6.36133 57.6484L7.55346 53.2549C8.4488 53.4897 9.35898 53.612 10.2593 53.612C12.0549 53.612 13.8307 53.1424 15.4285 52.2275C15.844 51.9926 16.2348 51.7333 16.6058 51.4447C16.8482 51.2636 17.0757 51.0728 17.3032 50.8625C18.3173 49.9378 19.1335 48.8174 19.7024 47.56C19.8804 47.1637 20.0338 46.7674 20.1574 46.3516C20.197 46.2341 20.2316 46.1167 20.2613 45.9944C21.2902 42.2076 20.0239 38.3377 17.3082 35.8327C18.9999 35.6272 20.6768 35.1673 22.24 34.4824C24.2928 37.2124 25.391 40.6176 25.198 44.1304H25.1882Z" fill="#91C03D"/>
<path d="M5.53032 47.2078C5.3374 47.927 4.87242 48.5239 4.21947 48.9006C3.56651 49.2724 2.80473 49.3703 2.08253 49.1795C1.36032 48.9838 0.751887 48.5288 0.375944 47.8829C1.21887e-06 47.242 -0.0989311 46.4886 0.093987 45.7694C0.430357 44.5267 1.56808 43.7047 2.81463 43.7047C3.05206 43.7047 3.29939 43.739 3.54178 43.8026C4.26399 43.9934 4.87242 44.4533 5.25331 45.0991C5.62925 45.7449 5.72818 46.4935 5.53032 47.2127V47.2078Z" fill="#91C03D"/>
<path d="M8.12236 37.6576C7.72169 39.14 6.1734 40.0207 4.67457 39.6293C3.17575 39.2281 2.28041 37.7016 2.68109 36.2192C3.01745 34.9765 4.16012 34.1546 5.40172 34.1546C5.64411 34.1546 5.88649 34.1888 6.12888 34.2524C6.85603 34.4432 7.46446 34.9031 7.84041 35.5489C8.21635 36.1947 8.31528 36.9433 8.12236 37.6625V37.6576Z" fill="#91C03D"/>
<path d="M28.9427 24.6142C28.7151 25.1426 28.448 25.6661 28.1512 26.17C26.6771 28.6945 24.5352 30.6956 21.963 31.9774C21.7355 32.0948 21.5079 32.1976 21.2754 32.3003C21.038 32.4031 20.7956 32.5058 20.5483 32.5939C20.0635 32.7798 19.5639 32.9412 19.0593 33.0733C17.7683 33.4158 16.4574 33.587 15.1565 33.587C14.3897 33.587 13.628 33.5283 12.8711 33.406C12.2825 33.318 11.6938 33.1859 11.1101 33.0244C10.7639 32.9266 10.4275 32.8189 10.0862 32.6966C9.26504 32.4031 8.46369 32.0361 7.69202 31.5958C4.22938 29.6143 1.74618 26.4195 0.717285 22.5985L5.15935 21.4243C5.87661 24.0711 7.59803 26.2825 9.99219 27.6573C10.4077 27.8922 10.8331 28.0977 11.2684 28.2738C11.5504 28.3912 11.8373 28.4891 12.1242 28.5771C13.1135 28.8805 14.1375 29.0321 15.1664 29.0321C15.5225 29.0321 15.8688 29.0174 16.22 28.9832C16.6454 28.9392 17.0757 28.8707 17.4962 28.7728C17.6199 28.7435 17.7435 28.7141 17.8672 28.6848C21.7008 27.6671 24.4561 24.6484 25.2871 21.072C26.3012 22.4028 27.5279 23.6014 28.9427 24.6191V24.6142Z" fill="#886AAB"/>
<path d="M11.1447 15.382C10.7688 16.0229 10.1653 16.4828 9.4332 16.6785C7.93932 17.0748 6.39103 16.1893 5.98541 14.7117C5.58473 13.2293 6.48007 11.6931 7.97889 11.3017C8.22128 11.2381 8.46861 11.2087 8.71594 11.2087C9.20071 11.2087 9.68548 11.3359 10.1208 11.5805C10.7688 11.9524 11.2338 12.5493 11.4267 13.2733C11.6245 13.9925 11.5207 14.7411 11.1447 15.3869V15.382Z" fill="#886AAB"/>
<path d="M19.094 14.1198C18.3668 14.3106 17.605 14.2127 16.957 13.8409C16.309 13.4642 15.844 12.8673 15.6412 12.1481C15.2406 10.6657 16.1359 9.13431 17.6347 8.73802C17.8771 8.67442 18.1195 8.64017 18.3619 8.64017C19.6035 8.64017 20.7461 9.46211 21.0776 10.7048C21.4782 12.1872 20.5878 13.7137 19.089 14.1149L19.094 14.1198Z" fill="#886AAB"/>
<path d="M42.1848 20.5338C41.6406 21.8059 41.2498 23.1415 41.0272 24.5261C40.9778 24.8246 40.9432 25.1279 40.9085 25.4214C40.3298 25.4899 39.7461 25.5242 39.1624 25.5242C36.3131 25.5242 33.4639 24.7316 30.9955 23.1367C30.7828 22.9997 30.575 22.8578 30.3673 22.7061C30.1595 22.5544 29.9518 22.3979 29.744 22.2364C29.3384 21.9086 28.9476 21.5613 28.5717 21.1943C27.0333 19.6728 25.9005 17.9066 25.1733 16.0181C24.9656 15.4701 24.7826 14.9124 24.644 14.3497C24.555 14.0023 24.4808 13.6599 24.4215 13.3125C23.6003 8.70866 24.9854 3.79169 28.5717 0.244629L31.8216 3.4639C29.4373 5.82208 28.4579 9.04624 28.8833 12.1187C28.9229 12.4172 28.9773 12.7107 29.0465 13.0043C29.3433 14.3106 29.9073 15.5777 30.7333 16.7079C30.9807 17.0553 31.2577 17.388 31.5594 17.7011C31.6435 17.794 31.7276 17.8821 31.8216 17.9751C33.8448 19.9712 36.5011 20.9742 39.1624 20.9742C40.1814 20.9742 41.2004 20.8274 42.1798 20.5338H42.1848Z" fill="#91C03D"/>
<path d="M42.1056 4.75062C41.5714 5.27901 40.864 5.56767 40.1121 5.56767C39.3602 5.56767 38.6529 5.27412 38.1236 4.75062C37.0205 3.66938 37.0205 1.90318 38.1236 0.812155C38.6529 0.288658 39.3602 0 40.1121 0C40.864 0 41.5714 0.288658 42.1056 0.812155C43.1988 1.90318 43.1988 3.66448 42.1056 4.75062Z" fill="#91C03D"/>
<path d="M49.9955 9.77523C49.9955 10.5189 49.7036 11.2185 49.1743 11.742C48.645 12.2704 47.9327 12.5591 47.1858 12.5591C46.4289 12.5591 45.7265 12.2704 45.1923 11.742C44.6581 11.2136 44.3662 10.5189 44.3662 9.77523C44.3662 9.03157 44.663 8.33683 45.1923 7.80355C45.7265 7.28005 46.4289 6.99139 47.1858 6.99139C47.9426 6.99139 48.645 7.28494 49.1743 7.80355C49.7086 8.33194 49.9955 9.03157 49.9955 9.77523Z" fill="#91C03D"/>
<path d="M62.08 12.926L60.8929 17.3243C59.9975 17.0846 59.0923 16.9672 58.1871 16.9672C56.3914 16.9672 54.6156 17.4369 53.0129 18.3469C52.5974 18.5866 52.2066 18.8459 51.8356 19.1346C51.5932 19.3156 51.3657 19.5113 51.1381 19.7168C50.1241 20.6463 49.3079 21.7618 48.744 23.0192C48.5609 23.4106 48.4076 23.8167 48.2839 24.2326C48.2493 24.35 48.2147 24.4674 48.1801 24.5897C47.4628 27.2365 47.8288 30.0008 49.2188 32.3786C49.7382 33.269 50.3813 34.0665 51.1233 34.7465C49.4266 34.952 47.7546 35.4119 46.1915 36.0969C45.8452 35.637 45.5237 35.1526 45.2319 34.6487C43.7578 32.1242 43.0801 29.2914 43.2483 26.4489C43.2631 26.1944 43.2829 25.9449 43.3076 25.6954C43.3373 25.441 43.3719 25.1817 43.4115 24.9224C43.4956 24.4136 43.5995 23.9096 43.738 23.4057C44.2871 21.39 45.2319 19.5455 46.518 17.9653C46.518 17.9604 46.5229 17.9604 46.5229 17.9604C46.8989 17.4907 47.3094 17.0406 47.7497 16.6247C48.0069 16.3801 48.2691 16.1404 48.5461 15.9153C49.2139 15.3575 49.941 14.8536 50.7127 14.4133C53.0178 13.0972 55.5802 12.4269 58.1772 12.4269C59.4781 12.4269 60.789 12.5933 62.0751 12.9358L62.08 12.926Z" fill="#886AAB"/>
<path d="M68.3474 24.8001C67.9418 26.2825 66.3935 27.1681 64.8996 26.7718C63.4008 26.3755 62.5104 24.8441 62.9111 23.3617C63.104 22.6425 63.569 22.0407 64.222 21.6689C64.87 21.2971 65.6268 21.1992 66.354 21.39C67.8528 21.7863 68.7481 23.3177 68.3474 24.8001Z" fill="#886AAB"/>
<path d="M65.7554 34.3552C65.3547 35.8376 63.8065 36.7231 62.3076 36.3268C60.8088 35.9305 59.9135 34.3992 60.3141 32.9168C60.5071 32.1976 60.977 31.6007 61.625 31.2239C62.2779 30.8521 63.0348 30.7543 63.7619 30.9451C64.4841 31.1408 65.0926 31.5958 65.4685 32.2416C65.8445 32.8825 65.9434 33.636 65.7505 34.3503L65.7554 34.3552Z" fill="#886AAB"/>
<path d="M60.4575 59.2727C59.7353 59.4635 58.9736 59.3705 58.3256 58.9938C57.6726 58.622 57.2076 58.0202 57.0147 57.3059C56.8218 56.5867 56.9207 55.8332 57.2967 55.1923C57.6726 54.5514 58.281 54.0866 59.0082 53.8958C59.2506 53.8322 59.493 53.8029 59.7353 53.8029C60.9769 53.8029 62.1196 54.6199 62.456 55.8675C62.8567 57.3499 61.9663 58.8813 60.4625 59.2776L60.4575 59.2727Z" fill="#91C03D"/>
<path d="M50.8018 61.8315C49.3029 62.2229 47.7547 61.3471 47.354 59.8598C46.9533 58.3725 47.8437 56.846 49.3425 56.4497C50.0697 56.2589 50.8314 56.3519 51.4795 56.7286C52.1275 57.1004 52.5974 57.7022 52.7903 58.4165C53.191 59.8989 52.3006 61.4303 50.7968 61.8266L50.8018 61.8315Z" fill="#91C03D"/>
<path d="M67.7291 47.971L63.2871 49.1452C62.5698 46.4983 60.8533 44.2869 58.4493 42.917C58.0337 42.6822 57.6133 42.4767 57.1829 42.3006C56.896 42.1832 56.6141 42.0853 56.3222 41.9972C55.3378 41.689 54.3139 41.5374 53.285 41.5374C52.9338 41.5374 52.5826 41.5569 52.2314 41.5912H52.2264C51.7961 41.6352 51.3756 41.7086 50.9452 41.8015C50.8265 41.8309 50.7029 41.8603 50.5841 41.8896C46.7604 42.9024 44.0101 45.9161 43.1692 49.4877C42.1502 48.152 40.9234 46.968 39.5186 45.9553C39.7461 45.4269 40.0083 44.9034 40.3001 44.3995C41.7742 41.8749 43.9112 39.8837 46.4784 38.597C46.706 38.4844 46.9335 38.3768 47.166 38.2692C47.4035 38.1664 47.6508 38.0637 47.8932 37.9756C48.3829 37.7897 48.8825 37.6233 49.392 37.4912C50.6831 37.1488 51.989 36.9775 53.2899 36.9775C54.0567 36.9775 54.8184 37.0362 55.5753 37.1586C56.1738 37.2466 56.7625 37.3738 57.3412 37.5402C57.6825 37.638 58.0288 37.7457 58.3602 37.868C59.1814 38.1615 59.9827 38.5285 60.7544 38.9688C64.217 40.9454 66.6953 44.1402 67.7291 47.9612V47.971Z" fill="#91C03D"/>
</g>
<defs>
<clipPath id="clip0_11_37">
<rect width="341" height="71" fill="white"/>
</clipPath>
</defs>
</svg>
