<svg width="393" height="527" viewBox="0 0 393 527" fill="none" xmlns="http://www.w3.org/2000/svg">
<g clip-path="url(#clip0_11_428)">
<path d="M589.845 337.459C585.044 348.664 579.524 359.635 573.302 370.364C542.529 423.668 497.709 465.931 443.998 493.03C439.258 495.465 434.448 497.657 429.595 499.85C424.612 502.051 419.577 504.183 414.413 506.02C404.273 509.989 393.84 513.369 383.285 516.159C356.308 523.395 328.915 527.009 301.764 527.009C285.758 527.009 269.813 525.761 253.98 523.213C241.649 521.315 229.378 518.585 217.159 515.154C209.923 513.135 202.869 510.821 195.754 508.212C178.622 501.982 161.905 494.217 145.778 484.91C73.4003 443.045 21.5781 375.581 0 294.832L92.7859 269.995C107.787 325.899 143.715 372.677 193.813 401.665C202.47 406.648 211.362 410.972 220.435 414.707C226.302 417.142 232.29 419.274 238.339 421.111C258.972 427.515 280.377 430.774 301.894 430.774C309.304 430.774 316.6 430.418 323.949 429.708C332.84 428.763 341.792 427.342 350.631 425.262C353.179 424.673 355.848 424.014 358.396 423.364C438.495 401.838 496.054 338.048 513.49 262.516C534.652 290.681 560.268 315.994 589.845 337.459Z" fill="#91C03D"/>
<path d="M218 142.346C210.174 155.926 197.487 165.64 182.253 169.739C151.003 178.093 118.636 159.427 110.222 128.177C101.859 96.8155 120.534 64.4483 151.835 56.0857C156.931 54.7252 162.096 54.0753 167.191 54.0753C177.331 54.0753 187.409 56.7444 196.543 61.9612C210.114 69.7865 219.845 82.4734 223.875 97.7081C227.965 112.882 225.834 128.715 218.008 142.346" fill="#91C03D"/>
<path d="M384.116 115.664C368.942 119.694 353.049 117.622 339.478 109.797C325.899 101.85 316.176 89.2242 312.025 74.0502C303.662 42.6883 322.337 10.3731 353.647 2.01049C358.743 0.649943 363.786 0 368.882 0C394.793 0 418.685 17.3751 425.678 43.5722C434.101 74.9341 415.426 107.189 384.116 115.664Z" fill="#91C03D"/>
</g>
<defs>
<clipPath id="clip0_11_428">
<rect width="589.845" height="527" fill="white"/>
</clipPath>
</defs>
</svg>
