<svg width="300" height="300" viewBox="0 0 300 300" fill="none" xmlns="http://www.w3.org/2000/svg">
<g clip-path="url(#clip0_24_343)">
<path d="M150 300C232.843 300 300 232.843 300 150C300 67.1573 232.843 0 150 0C67.1573 0 0 67.1573 0 150C0 232.843 67.1573 300 150 300Z" fill="#886AAB"/>
<path d="M150 286.803C74.5787 286.803 13.2135 225.438 13.2135 150.017C13.2135 74.5954 74.5787 13.2134 150 13.2134C225.421 13.2134 286.787 74.5786 286.787 150C286.787 225.421 225.421 286.786 150 286.786V286.803ZM150 16.955C76.6348 16.955 16.9551 76.6347 16.9551 150C16.9551 223.365 76.6348 283.062 150.017 283.062C223.399 283.062 283.079 223.382 283.079 150C283.079 76.6179 223.365 16.955 150 16.955Z" fill="#2F2151"/>
<path d="M81.0169 59.8146C81.6404 60.6405 82.264 61.4663 82.8876 62.2922L84.7416 60.8764C86.3595 59.6461 87.9775 58.4326 89.5955 57.2023L93.5225 62.3933L88.6685 66.0675C88.0618 66.5225 87.4213 67.0113 86.8146 67.4663L89.0899 70.4832C91.6854 68.5281 94.1461 66.6573 96.6573 64.7697L100.584 69.9607L87.2865 80.0225C84.6067 76.4832 81.9101 72.9101 79.2303 69.3877L71.3596 58.9888C75.809 55.618 80.2416 52.2809 84.6573 48.927L88.5843 54.118L81.0169 59.8315V59.8146Z" fill="white"/>
<path d="M98.3427 55.9719C96.5393 52.0112 94.736 48.0842 92.9326 44.1235L99.5393 41.1067L104.949 52.9719C105.843 54.9101 106.736 56.8988 107.629 58.8539L116.663 54.7247L119.528 60.9775L103.888 68.1235L98.3427 55.9887V55.9719Z" fill="white"/>
<path d="M152.68 38.5449C153.118 44.3764 149.174 48.5899 142.517 49.0955L141.185 49.1966C141.371 51.7079 141.573 54.236 141.758 56.7135L134.511 57.2528L132.522 30.9438C135.421 30.7247 138.202 30.5225 141.101 30.3034C147.691 29.7977 152.292 33.2528 152.697 38.5618L152.68 38.5449ZM145.281 39.1011C145.163 37.4663 143.73 36.3876 141.556 36.5393L140.225 36.6404C140.376 38.6292 140.528 40.6011 140.663 42.5562L141.624 42.4888C143.949 42.3202 145.416 40.9719 145.281 39.1011Z" fill="white"/>
<path d="M155.949 42.8764C156.506 38.5618 157.062 34.2641 157.618 29.9495L164.815 30.8764L163.146 43.8034C162.876 45.927 162.59 48.0843 162.32 50.2079L172.18 51.4888L171.303 58.3146L154.247 56.1068L155.966 42.8764H155.949Z" fill="white"/>
<path d="M177.927 52.517C177.708 52.7698 177.472 53.0226 177.236 53.2754C175.719 54.9776 174.185 56.6799 172.669 58.3653L178.989 60.8091C179.68 59.9832 180.388 59.1574 181.079 58.3316C181.247 58.5844 181.449 58.8372 181.635 59.09C182.073 59.6462 182.545 60.1855 183.051 60.708C184.787 62.4776 186.927 63.8934 189.388 64.854L189.455 64.8877L194.815 66.9608L197.343 67.9383C197.343 67.2979 197.343 66.6574 197.36 66.017C197.376 64.1462 197.393 62.2754 197.41 60.4046C197.41 60.017 197.41 59.6293 197.41 59.2417C197.444 56.2248 197.478 53.208 197.528 50.1743C197.579 47.1406 197.612 44.1068 197.629 41.0563C197.629 40.7698 197.629 40.5001 197.646 40.2473C197.646 40.0619 197.646 39.8597 197.646 39.6574L191.562 37.2979C189.994 39.0675 188.41 40.8372 186.876 42.5394C185.713 43.8203 184.567 45.1012 183.404 46.3821C183.522 45.3709 183.775 44.3596 184.163 43.3653L178.955 41.3428C177.573 44.9158 177.404 48.6574 178.23 52.1125L177.876 52.5001L177.927 52.517ZM186.438 52.0113L187.045 51.2866C187.416 50.8484 187.803 50.3934 188.174 49.9383C189.185 48.708 190.213 47.4776 191.258 46.2641L191.747 45.6743V46.4495C191.697 47.6125 191.68 48.7754 191.663 49.9383C191.646 51.1181 191.612 52.281 191.562 53.4439C191.511 54.6068 191.478 55.7698 191.444 56.9327V57.6068V59.6799H191.393C191.242 59.6125 191.107 59.545 190.972 59.4945C190.483 59.2922 190.011 59.0394 189.556 58.7866C188.09 57.9271 186.826 56.781 185.848 55.4495C185.629 55.1462 185.41 54.8428 185.225 54.5394C185.09 54.3203 184.972 54.1012 184.854 53.8821L186.404 52.0282L186.438 52.0113Z" fill="white"/>
<path d="M226.972 71.2415C223.719 75.3876 220.433 79.5336 217.18 83.6797L213.455 80.764C212.275 79.837 211.045 78.8763 209.781 77.882L214.315 59.4943C212.933 61.264 211.551 63.0168 210.169 64.7864L203.663 73.0954L198.303 68.8988L204.809 60.5898C208.062 56.4438 211.315 52.2808 214.567 48.1348L218.292 51.0505C219.472 51.9775 220.635 52.8876 221.966 53.9325L217.669 72.0842C218.983 70.3988 220.281 68.7471 221.595 67.0617L228.101 58.7527L233.461 62.9494L226.955 71.2584L226.972 71.2415Z" fill="white"/>
<path d="M82.7865 217.736L89.6798 223.18C96.4213 228.522 97.5506 236.022 92.764 242.09C87.5562 248.68 79.736 248.949 73.1966 243.775L66.4213 238.416L82.7697 217.719L82.7865 217.736ZM77.309 238.23C80.3933 240.674 84.1348 240.691 86.7809 237.337C89.0056 234.522 88.5506 231.034 85.2472 228.421L84.2191 227.612L76.3989 237.506L77.2921 238.213L77.309 238.23Z" fill="white"/>
<path d="M108.522 242.444C108.101 243.388 107.697 244.331 107.275 245.275L109.416 246.219C111.27 247.045 113.124 247.854 114.978 248.68L112.348 254.629L106.787 252.168C106.079 251.865 105.354 251.528 104.646 251.225L103.112 254.68C106.079 255.994 108.91 257.242 111.792 258.506L109.163 264.455L93.9101 257.713C95.6966 253.652 97.5169 249.556 99.3034 245.511L104.562 233.579C109.669 235.837 114.742 238.079 119.815 240.32L117.185 246.27L108.506 242.444H108.522Z" fill="white"/>
<path d="M146.461 256.011C145.685 261.236 144.876 266.444 144.101 271.669L139.416 270.978C137.933 270.758 136.382 270.522 134.798 270.286L129.657 252.051C129.32 254.275 129 256.483 128.68 258.708L127.129 269.14L120.404 268.146L121.955 257.713C122.73 252.489 123.506 247.281 124.281 242.056L128.966 242.747C130.449 242.966 131.916 243.185 133.584 243.438L138.809 261.337C139.129 259.213 139.433 257.14 139.753 255.017L141.303 244.584L148.028 245.579L146.478 256.011H146.461Z" fill="white"/>
<path d="M173.713 249.472L166.736 250.382C167.022 252.539 167.292 254.697 167.579 256.871L169.264 269.713L161.949 270.674L160.264 257.831C159.978 255.674 159.691 253.517 159.421 251.343L152.41 252.253L151.517 245.427L162.169 244.028C165.725 243.556 169.264 243.101 172.82 242.629L173.713 249.455V249.472Z" fill="white"/>
<path d="M183.792 267.152L190.062 264.573C189.994 263.494 189.927 262.416 189.876 261.337C190.18 261.404 190.5 261.455 190.803 261.505C191.511 261.607 192.219 261.674 192.944 261.708C195.421 261.792 197.949 261.354 200.393 260.343L200.461 260.309L205.787 258.118L208.298 257.09C207.86 256.618 207.421 256.146 206.983 255.674C205.702 254.292 204.438 252.927 203.157 251.562C202.888 251.275 202.635 250.989 202.365 250.702C200.309 248.494 198.27 246.27 196.197 244.045C194.14 241.82 192.067 239.595 189.994 237.354C189.792 237.152 189.624 236.949 189.455 236.764C189.337 236.629 189.202 236.477 189.051 236.326L183.017 238.803C183.101 241.163 183.742 264.859 183.792 267.135V267.152ZM189.388 253.062L189.32 252.118C189.287 251.528 189.253 250.955 189.219 250.365C189.118 248.781 189.017 247.18 188.916 245.579L188.865 244.82L189.371 245.393C190.146 246.253 190.938 247.112 191.73 247.972C192.522 248.831 193.315 249.708 194.073 250.567C194.848 251.444 195.607 252.303 196.399 253.18L196.854 253.685L198.303 255.168H198.253C198.118 255.253 197.966 255.303 197.831 255.354C197.326 255.539 196.82 255.691 196.315 255.809C194.646 256.196 192.961 256.23 191.343 255.944C190.972 255.876 190.618 255.809 190.264 255.708C190.028 255.64 189.775 255.573 189.539 255.489L189.404 253.078L189.388 253.062Z" fill="white"/>
<path d="M208.112 241.213C205.517 237.725 202.921 234.253 200.326 230.764L206.157 226.433L213.944 236.882C215.225 238.601 216.522 240.354 217.803 242.056L225.775 236.124L229.888 241.635L216.084 251.916L208.112 241.213Z" fill="white"/>
<path d="M57.7247 219.792L56.0562 217.315L58.6348 211.584L52.3483 211.82L50.6798 209.343L61.1461 202.298L62.6798 204.59L55.8371 209.191L62.2921 209.124L62.3258 209.191L59.8652 215.09L66.6573 210.523L68.1742 212.781L57.7079 219.826L57.7247 219.792Z" fill="#2F2151"/>
<path d="M57.1348 201.927L51.5393 204.742L50.309 202.298L55.1292 199.871C56.2921 199.281 56.6124 198.438 56.1405 197.511C55.6685 196.584 54.7753 196.281 53.6124 196.871L48.7921 199.298L47.5618 196.854L56.2079 192.506L57.4382 194.949L56.2079 195.573C57.2191 195.775 58.2472 196.163 58.8708 197.41C59.7978 199.264 59.1236 200.966 57.1348 201.961V201.927Z" fill="#2F2151"/>
<path d="M51.118 192.792H51.0843C48.5056 193.787 45.6236 192.641 44.5787 189.877C43.9213 188.174 44.0899 186.893 44.7135 185.697L46.9888 186.624C46.6011 187.433 46.4326 188.157 46.7865 189.068C47.2753 190.348 48.7584 190.82 50.0899 190.315H50.1236C51.5056 189.775 52.2809 188.461 51.7416 187.062C51.4045 186.202 50.8146 185.747 49.9888 185.36L50.9326 183.287C52.2303 183.792 53.309 184.534 54 186.337C55.0449 189.051 53.7135 191.832 51.1348 192.826L51.118 192.792Z" fill="#2F2151"/>
<path d="M39.2697 184.921L38.5449 182.275L43.2472 180.994C42.3034 180.607 41.3764 180.017 41.0056 178.669C40.4663 176.663 41.4607 175.146 43.6011 174.556L49.6348 172.905L50.3595 175.551L45.1517 176.966C43.9045 177.303 43.4157 178.079 43.6854 179.09C43.9551 180.101 44.7809 180.573 46.0281 180.219L51.236 178.803L51.9607 181.449L39.2528 184.921H39.2697Z" fill="#2F2151"/>
<path d="M46.5843 172.028H46.5506C44.4775 172.382 43.2472 170.95 42.8764 168.691C42.7247 167.73 42.7584 167.006 42.8764 166.298L42.7079 166.332C41.5955 166.517 41.073 167.309 41.309 168.674C41.4775 169.702 41.7978 170.41 42.2697 171.219L40.3146 172.247C39.6742 171.27 39.2022 170.292 38.9326 168.674C38.6798 167.191 38.8989 166.062 39.4551 165.27C40.0449 164.444 41.0393 163.938 42.3202 163.736L47.8483 162.809L48.2865 165.421L47.2584 165.59C48.1011 166.129 48.7247 166.955 48.9438 168.27C49.2472 170.073 48.4551 171.708 46.5674 172.028H46.5843ZM44.9326 165.927L44.4607 166.011C44.3258 166.517 44.2753 167.141 44.3933 167.798C44.5787 168.961 45.1685 169.584 46.0281 169.45H46.0618C46.7865 169.315 47.1236 168.641 46.9719 167.781C46.7528 166.517 45.927 165.775 44.9494 165.944L44.9326 165.927Z" fill="#2F2151"/>
<path d="M46.4663 161.747L44.5787 160.719C45.2528 159.624 45.573 158.495 45.5056 157.601C45.4382 156.809 45.1348 156.472 44.6966 156.506H44.6629C44.073 156.556 43.9382 157.5 43.7022 158.596C43.3989 159.978 42.8933 161.545 41.0225 161.697H40.9888C39.0337 161.848 37.8202 160.348 37.6685 158.393C37.5843 157.163 37.8876 155.815 38.5112 154.719L40.4831 155.629C39.9944 156.624 39.7247 157.601 39.7753 158.309C39.8258 158.966 40.1461 159.287 40.5169 159.27H40.5506C41.0899 159.219 41.2753 158.292 41.5618 157.214C41.9157 155.832 42.4382 154.214 44.2079 154.079H44.2416C46.382 153.91 47.4775 155.444 47.6292 157.534C47.7303 158.882 47.3933 160.433 46.4831 161.781L46.4663 161.747Z" fill="#2F2151"/>
<path d="M37.5 146.495L37.6517 143.747L39.6067 143.848C38.309 143.225 37.4831 142.281 37.6517 140.646L40.5169 140.798V140.95C40.4157 142.77 41.4607 143.95 43.7528 144.068L47.3258 144.253L47.1742 146.983L37.5169 146.478L37.5 146.495Z" fill="#2F2151"/>
<path d="M44.6966 140.528H44.6629C42.573 140.242 41.8146 138.522 42.118 136.247C42.2528 135.287 42.5056 134.612 42.8258 133.955H42.6573C41.5281 133.787 40.8034 134.393 40.6348 135.758C40.5 136.787 40.6011 137.562 40.8034 138.472L38.6292 138.876C38.309 137.764 38.1404 136.685 38.3596 135.051C38.5618 133.567 39.1011 132.539 39.8595 131.949C40.6685 131.326 41.764 131.157 43.0618 131.326L48.6236 132.067L48.2697 134.697L47.2247 134.562C47.8652 135.32 48.236 136.298 48.0506 137.629C47.8146 139.433 46.5674 140.781 44.6798 140.528H44.6966ZM44.8989 134.191L44.4101 134.124C44.1404 134.562 43.9045 135.152 43.8202 135.809C43.6685 136.972 44.0393 137.747 44.8989 137.865H44.9326C45.6742 137.966 46.1798 137.41 46.2978 136.534C46.4663 135.27 45.8764 134.309 44.8989 134.174V134.191Z" fill="#2F2151"/>
<path d="M47.0393 130.062L42.809 123.944L41.6966 128.646L39.5393 128.141L41.427 120.118L43.3146 120.556L47.5449 126.708L48.691 121.82L50.8483 122.326L48.927 130.517L47.0562 130.079L47.0393 130.062Z" fill="#2F2151"/>
<path d="M46.5169 119.916H46.4831C43.8539 119.006 42.4551 116.157 43.4326 113.309C44.4101 110.478 47.2247 109.096 49.8539 110.006H49.8876C52.5169 110.916 53.9157 113.764 52.9382 116.613C51.9607 119.444 49.1461 120.826 46.5169 119.916ZM49.0449 112.584H49.0112C47.6629 112.113 46.1461 112.669 45.6573 114.101C45.1517 115.584 45.9775 116.865 47.3258 117.337H47.3595C48.7079 117.809 50.2247 117.253 50.7135 115.82C51.2191 114.337 50.3933 113.056 49.0449 112.584Z" fill="#2F2151"/>
<path d="M46.2978 106.112L47.4607 103.635L48.691 104.225C48.2191 103.315 47.8989 102.253 48.5056 101.006C49.3989 99.1348 51.1517 98.6292 53.1573 99.573L58.8202 102.236L57.6573 104.713L52.7865 102.404C51.6067 101.848 50.7472 102.118 50.2921 103.062C49.8539 104.006 50.1573 104.899 51.3371 105.455L56.2079 107.764L55.0449 110.242L46.2978 106.112Z" fill="#2F2151"/>
<path d="M55.3989 98.4776H55.3652C53.0056 97.0282 52.0787 94.163 53.5281 91.7698C55.1966 89.0057 58.1124 89.0394 60.4551 90.4551C60.6404 90.5731 60.8427 90.708 61.0449 90.8596L57.5562 96.6237C58.7528 97.0282 59.764 96.6237 60.4045 95.5787C60.8764 94.7866 60.9775 94.0787 60.7753 93.0506L62.7809 92.4271C63.2697 93.7754 63.1854 95.2417 62.2753 96.7417C60.7753 99.2192 57.9101 100.011 55.382 98.4776H55.3989ZM58.2303 92.2248C57.1011 91.7192 56.0225 91.9214 55.4157 92.899C54.8258 93.8765 55.1461 94.9214 56.0899 95.7473L58.2303 92.208V92.2248Z" fill="#2F2151"/>
<path d="M63.809 91.3989L63.0843 89.3765C64.3146 89.0057 65.309 88.3652 65.8483 87.6405C66.3202 87.0001 66.3202 86.545 65.9663 86.2922H65.9326C65.4607 85.9046 64.736 86.545 63.8258 87.1855C62.6966 88.0282 61.264 88.8709 59.764 87.7416H59.7303C58.1629 86.5282 58.2472 84.6068 59.427 83.0562C60.1685 82.0787 61.2978 81.2697 62.4944 80.8484L63.3708 82.8203C62.3427 83.2416 61.5 83.7978 61.0787 84.354C60.6742 84.8933 60.691 85.3315 60.9944 85.5675H61.0281C61.4663 85.9214 62.2247 85.3315 63.1348 84.7248C64.3146 83.9158 65.7809 83.0563 67.1798 84.118H67.2135C68.9326 85.4327 68.7303 87.3034 67.4663 88.972C66.6573 90.0506 65.3764 90.9945 63.7921 91.3989H63.809Z" fill="#2F2151"/>
<path d="M244.264 88.146L245.663 90.5056L244.466 91.2134C245.579 91.3314 246.624 91.7696 247.365 92.9999C248.528 94.9381 248.107 97.6853 245.326 99.337H245.292C242.511 101.006 239.916 100.095 238.736 98.1235C237.994 96.8763 238.096 95.7471 238.433 94.8033L234.86 96.9269L233.461 94.5674L244.247 88.1292L244.264 88.146ZM243.893 97.0112H243.927C245.309 96.1685 245.663 94.6853 245.006 93.5898C244.348 92.4943 242.882 92.1235 241.517 92.9494H241.483C240.101 93.7921 239.73 95.2584 240.388 96.3539C241.045 97.4494 242.494 97.8539 243.893 97.0112Z" fill="#2F2151"/>
<path d="M244.096 101.528H244.129C246.051 100.635 247.601 101.68 248.562 103.77C248.966 104.663 249.118 105.354 249.185 106.079L249.337 106.011C250.365 105.539 250.652 104.629 250.079 103.382C249.64 102.438 249.152 101.848 248.494 101.174L250.112 99.6741C250.989 100.449 251.697 101.275 252.388 102.758C253.011 104.124 253.096 105.27 252.758 106.18C252.404 107.14 251.579 107.882 250.399 108.421L245.309 110.764L244.197 108.354L245.14 107.916C244.197 107.612 243.371 106.989 242.815 105.775C242.056 104.124 242.376 102.32 244.112 101.528H244.096ZM247.298 106.989L247.736 106.786C247.736 106.264 247.618 105.657 247.331 105.05C246.843 103.989 246.118 103.517 245.326 103.888H245.292C244.618 104.208 244.483 104.949 244.854 105.758C245.393 106.921 246.388 107.41 247.298 107.006V106.989Z" fill="#2F2151"/>
<path d="M255.051 109.348L255.978 111.927L254.14 112.584C255.59 112.652 256.702 113.208 257.191 114.758L254.494 115.736L254.444 115.601C253.82 113.882 252.405 113.208 250.23 113.983L246.876 115.196L245.949 112.618L255.051 109.348Z" fill="#2F2151"/>
<path d="M250.77 117.674H250.803C252.843 117.118 254.208 118.399 254.798 120.623C255.051 121.567 255.084 122.292 255.034 123L255.185 122.949C256.281 122.646 256.702 121.803 256.348 120.489C256.079 119.477 255.691 118.82 255.152 118.045L256.989 116.831C257.713 117.741 258.287 118.668 258.725 120.253C259.112 121.702 259.011 122.848 258.539 123.691C258.034 124.584 257.09 125.174 255.843 125.511L250.433 126.977L249.742 124.416L250.753 124.146C249.86 123.691 249.152 122.932 248.798 121.652C248.326 119.899 248.933 118.18 250.787 117.674H250.77ZM253.028 123.573L253.5 123.438C253.584 122.932 253.567 122.292 253.382 121.652C253.079 120.522 252.438 119.949 251.596 120.168H251.562C250.854 120.371 250.584 121.078 250.82 121.938C251.157 123.168 252.067 123.826 253.011 123.573H253.028Z" fill="#2F2151"/>
<path d="M256.416 132.893H256.449C259.197 132.573 261.691 134.393 262.045 137.326C262.264 139.129 261.792 140.343 260.882 141.354L258.893 139.905C259.466 139.214 259.803 138.556 259.685 137.596C259.517 136.23 258.202 135.405 256.787 135.573H256.753C255.287 135.758 254.208 136.837 254.393 138.337C254.494 139.247 254.966 139.837 255.674 140.427L254.258 142.214C253.129 141.405 252.27 140.41 252.034 138.489C251.697 135.607 253.669 133.23 256.399 132.893H256.416Z" fill="#2F2151"/>
<path d="M257.595 142.888H257.629C260.41 142.837 262.702 145.028 262.753 148.045C262.803 151.045 260.629 153.303 257.848 153.337H257.815C255.034 153.388 252.742 151.197 252.691 148.18C252.64 145.18 254.815 142.921 257.595 142.888ZM257.73 150.657H257.764C259.197 150.624 260.41 149.579 260.393 148.062C260.36 146.494 259.146 145.584 257.713 145.601H257.68C256.247 145.635 255.034 146.68 255.051 148.197C255.084 149.764 256.298 150.674 257.73 150.657Z" fill="#2F2151"/>
<path d="M262.669 155.932L262.348 158.663L260.983 158.511C261.708 159.236 262.348 160.146 262.197 161.528C262.045 162.775 261.388 163.668 260.36 164.056C261.253 165.017 261.657 166.078 261.506 167.393C261.27 169.416 259.904 170.494 257.596 170.225L251.343 169.483L251.663 166.753L257.022 167.376C258.32 167.528 259.045 167.039 259.163 166.011C259.281 164.983 258.691 164.292 257.41 164.14L252.051 163.517L252.371 160.786L257.73 161.41C259.028 161.562 259.753 161.073 259.871 160.045C259.989 159.017 259.399 158.326 258.118 158.174L252.758 157.55L253.079 154.82L262.685 155.949L262.669 155.932Z" fill="#2F2151"/>
<path d="M260.208 173.578L259.517 176.225L258.169 175.871C258.876 176.747 259.298 177.809 258.927 179.174C258.354 181.365 256.112 182.983 252.978 182.174H252.944C249.809 181.348 248.629 178.871 249.219 176.646C249.59 175.23 250.466 174.522 251.376 174.084L247.365 173.039L248.056 170.376L260.208 173.528V173.578ZM253.635 179.545H253.669C255.219 179.949 256.517 179.174 256.854 177.944C257.174 176.696 256.416 175.399 254.865 175.011H254.831C253.281 174.607 251.983 175.365 251.663 176.595C251.343 177.843 252.084 179.14 253.652 179.562L253.635 179.545Z" fill="#2F2151"/>
<path d="M250.567 182.865H250.601C252.573 183.623 252.927 185.477 252.118 187.618C251.781 188.528 251.376 189.135 250.904 189.691L251.056 189.741C252.118 190.146 252.961 189.708 253.449 188.427C253.82 187.449 253.888 186.691 253.904 185.747L256.096 185.848C256.163 187.011 256.079 188.09 255.489 189.64C254.966 191.039 254.208 191.916 253.315 192.32C252.388 192.741 251.275 192.674 250.062 192.202L244.82 190.213L245.764 187.736L246.742 188.107C246.287 187.213 246.152 186.185 246.624 184.938C247.264 183.236 248.781 182.208 250.567 182.882V182.865ZM248.933 188.983L249.388 189.152C249.758 188.781 250.112 188.258 250.348 187.635C250.77 186.539 250.584 185.696 249.775 185.393H249.742C249.051 185.123 248.427 185.545 248.124 186.371C247.669 187.567 248.022 188.629 248.949 188.983H248.933Z" fill="#2F2151"/>
<path d="M252.708 196.163L251.528 198.64L249.775 197.798C250.736 198.876 251.124 200.073 250.365 201.506L247.787 200.275L247.854 200.14C248.646 198.489 248.124 197.006 246.051 196.011L242.831 194.478L244.011 192L252.725 196.18L252.708 196.163Z" fill="#2F2151"/>
<path d="M242.966 200.208L246.944 202.466L247.517 201.455L249.556 202.618L248.983 203.629L251.124 204.843L249.775 207.219L247.635 205.989L246.506 207.961L244.466 206.798L245.596 204.826L242.006 202.786C241.449 202.466 241.062 202.55 240.758 203.09C240.506 203.528 240.388 203.983 240.388 204.438L238.466 203.343C238.466 202.668 238.601 201.977 239.056 201.185C239.882 199.719 241.028 199.062 242.966 200.174V200.208Z" fill="#2F2151"/>
<path d="M245.208 210.034L243.708 212.326L235.601 207.05L237.101 204.758L245.208 210.034ZM248.191 211.888L246.624 214.314L244.584 212.983L246.152 210.556L248.191 211.888Z" fill="#2F2151"/>
<path d="M242.09 214.753L240.455 216.961L238.888 215.798C239.629 217.045 239.781 218.275 238.77 219.539L236.461 217.837L236.545 217.719C237.624 216.253 237.404 214.702 235.551 213.32L232.685 211.197L234.32 208.989L242.09 214.736V214.753Z" fill="#2F2151"/>
<path d="M142.433 217.129C140.309 219.253 136.837 219.253 134.713 217.129C132.59 215.006 132.59 211.534 134.713 209.41C135.742 208.382 137.107 207.809 138.573 207.809C140.039 207.809 141.405 208.382 142.433 209.41C144.556 211.534 144.556 215.006 142.433 217.129Z" fill="#2F2151"/>
<path d="M130.331 199.584C130.331 201.034 129.758 202.416 128.73 203.444C127.702 204.472 126.337 205.045 124.871 205.045C123.404 205.045 122.039 204.472 121.011 203.444C119.983 202.416 119.41 201.05 119.41 199.584C119.41 198.118 119.966 196.753 121.011 195.725C122.039 194.697 123.404 194.124 124.871 194.124C126.337 194.124 127.702 194.697 128.73 195.725C129.758 196.753 130.331 198.118 130.331 199.584Z" fill="#2F2151"/>
<path d="M160.955 218.259C160.079 219.135 158.949 219.573 157.803 219.573L154.652 211.955C162.489 204.118 162.489 191.343 154.652 183.506C150.725 179.579 145.584 177.624 140.427 177.624C138.455 177.624 136.466 177.91 134.562 178.483C135.826 175.483 136.669 172.264 137.022 168.91C138.152 168.775 139.281 168.708 140.427 168.708C146.461 168.708 152.511 170.579 157.601 174.304L157.888 174.506C158.444 174.91 158.966 175.348 159.489 175.804C159.742 176.006 159.978 176.225 160.213 176.461C160.466 176.697 160.736 176.95 160.972 177.186C162.017 178.23 162.978 179.343 163.854 180.539C164.208 181.028 164.545 181.517 164.865 182.006C172.079 193.247 170.781 208.416 160.972 218.225L160.955 218.259Z" fill="#2F2151"/>
<path d="M132.506 166.921C132.489 167.41 132.438 167.899 132.388 168.388C132.337 168.893 132.27 169.399 132.202 169.904C132.051 170.899 131.831 171.893 131.562 172.888C130.5 176.848 128.663 180.455 126.169 183.556C125.444 184.483 124.652 185.343 123.792 186.185C123.303 186.674 122.781 187.129 122.242 187.584C120.944 188.68 119.528 189.657 118.045 190.517C113.579 193.096 108.607 194.427 103.584 194.427C101.056 194.427 98.5281 194.09 96.0337 193.433L98.3427 184.82C100.079 185.275 101.848 185.511 103.584 185.511C107.073 185.511 110.511 184.601 113.612 182.798C114.421 182.343 115.18 181.837 115.888 181.264C116.36 180.91 116.798 180.539 117.236 180.118C119.191 178.298 120.775 176.107 121.888 173.646C122.242 172.871 122.528 172.095 122.781 171.287C122.865 171.051 122.916 170.831 122.983 170.579C124.972 163.163 122.528 155.579 117.253 150.657C120.539 150.253 123.775 149.36 126.809 148.011C130.787 153.354 132.927 160.028 132.539 166.921H132.506Z" fill="white"/>
<path d="M94.3989 172.955C94.0281 174.371 93.118 175.534 91.8539 176.275C90.5899 177 89.1236 177.202 87.7079 176.815C86.309 176.427 85.1292 175.534 84.4045 174.27C83.6629 173.006 83.4775 171.539 83.8652 170.124C84.5225 167.697 86.7303 166.079 89.1404 166.079C89.6124 166.079 90.0843 166.146 90.5562 166.264C91.9551 166.635 93.1348 167.545 93.8764 168.809C94.6011 170.073 94.8034 171.539 94.4157 172.955H94.3989Z" fill="white"/>
<path d="M99.4214 154.23C98.6461 157.129 95.6461 158.865 92.7472 158.09C89.8315 157.315 88.1124 154.315 88.8876 151.399C89.5449 148.972 91.7528 147.354 94.1629 147.354C94.6348 147.354 95.1067 147.421 95.5787 147.539C96.9944 147.91 98.1742 148.82 98.8989 150.084C99.6236 151.348 99.8258 152.815 99.4382 154.23H99.4214Z" fill="white"/>
<path d="M139.77 128.68C139.331 129.725 138.809 130.736 138.236 131.73C135.388 136.669 131.225 140.596 126.236 143.107C125.798 143.326 125.343 143.528 124.904 143.747C124.449 143.95 123.978 144.152 123.489 144.32C122.545 144.691 121.584 144.994 120.607 145.264C118.112 145.938 115.567 146.275 113.039 146.275C111.556 146.275 110.073 146.157 108.607 145.921C107.461 145.753 106.331 145.5 105.185 145.18C104.511 144.994 103.854 144.775 103.197 144.539C101.612 143.966 100.062 143.242 98.5618 142.382C91.8539 138.506 87.0337 132.236 85.0449 124.753L93.6573 122.444C95.0562 127.635 98.3764 131.966 103.028 134.663C103.837 135.118 104.663 135.523 105.506 135.877C106.045 136.096 106.601 136.298 107.174 136.466C109.096 137.056 111.067 137.36 113.073 137.36C113.764 137.36 114.438 137.326 115.112 137.259C115.938 137.174 116.764 137.039 117.59 136.854C117.826 136.803 118.079 136.736 118.315 136.686C125.747 134.697 131.09 128.764 132.708 121.77C134.663 124.382 137.039 126.725 139.787 128.714L139.77 128.68Z" fill="#2F2151"/>
<path d="M105.27 110.579C104.545 111.843 103.365 112.736 101.949 113.124C99.0506 113.899 96.0506 112.163 95.2753 109.264C94.5 106.348 96.236 103.348 99.1348 102.573C99.6067 102.438 100.079 102.388 100.567 102.388C101.511 102.388 102.438 102.641 103.298 103.112C104.562 103.837 105.455 105.017 105.826 106.433C106.213 107.848 106.011 109.315 105.287 110.579H105.27Z" fill="#2F2151"/>
<path d="M120.691 108.101C119.275 108.472 117.809 108.287 116.545 107.562C115.281 106.82 114.388 105.657 114 104.242C113.225 101.326 114.961 98.3428 117.86 97.5675C118.331 97.4326 118.803 97.3821 119.275 97.3821C121.685 97.3821 123.893 99.0001 124.551 101.427C125.326 104.343 123.607 107.326 120.691 108.118V108.101Z" fill="#2F2151"/>
<path d="M165.438 120.674C164.393 123.169 163.635 125.781 163.197 128.494C163.096 129.084 163.028 129.674 162.978 130.247C161.848 130.382 160.719 130.449 159.59 130.449C154.062 130.449 148.551 128.899 143.764 125.781C143.36 125.511 142.938 125.225 142.551 124.938C142.146 124.635 141.742 124.332 141.354 124.011C140.562 123.371 139.803 122.697 139.079 121.972C136.095 118.989 133.904 115.534 132.489 111.826C132.084 110.747 131.73 109.652 131.461 108.556C131.292 107.882 131.14 107.208 131.022 106.517C129.438 97.5 132.118 87.8596 139.062 80.8989L145.365 87.2023C140.747 91.8203 138.843 98.1405 139.669 104.174C139.753 104.764 139.854 105.337 139.989 105.91C140.562 108.472 141.657 110.949 143.258 113.174C143.747 113.848 144.27 114.506 144.86 115.129C145.011 115.315 145.197 115.483 145.365 115.669C149.292 119.579 154.433 121.551 159.59 121.551C161.562 121.551 163.534 121.264 165.438 120.691V120.674Z" fill="white"/>
<path d="M165.287 89.7472C164.258 90.7753 162.876 91.3483 161.427 91.3483C159.978 91.3483 158.596 90.7753 157.567 89.7472C155.427 87.6236 155.427 84.1686 157.567 82.0281C158.596 81 159.961 80.427 161.427 80.427C162.893 80.427 164.258 81 165.287 82.0281C167.41 84.1686 167.41 87.6236 165.287 89.7472Z" fill="white"/>
<path d="M180.573 99.5898C180.573 101.039 180.017 102.421 178.972 103.449C177.944 104.477 176.562 105.051 175.112 105.051C173.663 105.051 172.281 104.477 171.253 103.449C170.225 102.421 169.652 101.056 169.652 99.5898C169.652 98.1235 170.225 96.7752 171.253 95.7303C172.281 94.7022 173.646 94.1292 175.112 94.1292C176.562 94.1292 177.944 94.7022 178.972 95.7303C180 96.7752 180.573 98.1404 180.573 99.5898Z" fill="white"/>
<path d="M204 105.759L201.691 114.371C199.955 113.899 198.202 113.68 196.449 113.68C192.961 113.68 189.522 114.59 186.421 116.377C185.612 116.848 184.854 117.354 184.146 117.91C183.674 118.264 183.236 118.652 182.798 119.056C180.826 120.877 179.258 123.068 178.163 125.528C177.809 126.303 177.506 127.096 177.27 127.905C177.202 128.141 177.135 128.36 177.067 128.596C175.669 133.787 176.393 139.197 179.073 143.865C180.084 145.618 181.315 147.169 182.764 148.5C179.478 148.905 176.225 149.798 173.208 151.146C172.534 150.236 171.91 149.292 171.354 148.315C168.506 143.36 167.191 137.815 167.511 132.253C167.545 131.764 167.579 131.275 167.629 130.787C167.68 130.281 167.747 129.775 167.831 129.27C167.983 128.275 168.202 127.281 168.472 126.287C169.534 122.326 171.371 118.719 173.865 115.618C174.59 114.708 175.399 113.815 176.242 113.006C176.73 112.517 177.253 112.062 177.775 111.607C179.073 110.511 180.472 109.534 181.972 108.657C186.438 106.079 191.41 104.764 196.433 104.764C198.944 104.764 201.489 105.101 203.983 105.759H204Z" fill="#2F2151"/>
<path d="M216.152 129.034C215.376 131.949 212.36 133.669 209.461 132.893C206.562 132.118 204.826 129.118 205.601 126.219C205.972 124.803 206.882 123.624 208.146 122.899C209.41 122.174 210.876 121.972 212.275 122.36C215.191 123.135 216.91 126.135 216.135 129.034H216.152Z" fill="#2F2151"/>
<path d="M211.129 147.759C210.354 150.674 207.354 152.393 204.455 151.618C201.539 150.843 199.82 147.843 200.595 144.944C200.966 143.528 201.876 142.365 203.14 141.624C204.404 140.899 205.871 140.697 207.287 141.084C208.685 141.472 209.865 142.365 210.59 143.629C211.331 144.893 211.517 146.36 211.129 147.759Z" fill="#2F2151"/>
<path d="M200.865 196.601C199.466 196.972 197.983 196.787 196.736 196.062C195.472 195.337 194.562 194.157 194.191 192.758C193.82 191.343 194.006 189.876 194.73 188.612C195.455 187.348 196.635 186.455 198.051 186.067C198.522 185.949 198.994 185.882 199.466 185.882C201.876 185.882 204.084 187.483 204.742 189.927C205.517 192.843 203.781 195.826 200.882 196.601H200.865Z" fill="white"/>
<path d="M182.14 201.607C179.225 202.382 176.242 200.646 175.466 197.747C174.691 194.831 176.427 191.848 179.326 191.073C180.742 190.702 182.208 190.888 183.472 191.612C184.736 192.337 185.629 193.517 186.017 194.916C186.792 197.831 185.056 200.815 182.157 201.607H182.14Z" fill="white"/>
<path d="M214.955 174.455L206.343 176.764C204.944 171.573 201.624 167.242 196.972 164.562C196.163 164.107 195.354 163.702 194.511 163.348C193.955 163.129 193.399 162.927 192.843 162.758C190.938 162.152 188.949 161.848 186.961 161.848C186.287 161.848 185.596 161.882 184.921 161.949C184.096 162.034 183.27 162.169 182.444 162.354C182.208 162.421 181.972 162.472 181.736 162.523C174.32 164.511 168.994 170.41 167.36 177.405C165.388 174.792 163.011 172.466 160.281 170.494C160.719 169.449 161.225 168.438 161.798 167.444C164.663 162.506 168.792 158.596 173.781 156.084C174.219 155.865 174.674 155.646 175.112 155.444C175.567 155.242 176.039 155.039 176.528 154.871C177.472 154.5 178.449 154.18 179.444 153.927C181.938 153.253 184.483 152.916 186.994 152.916C188.478 152.916 189.961 153.034 191.427 153.27C192.59 153.438 193.719 153.691 194.848 154.011C195.506 154.197 196.18 154.416 196.82 154.652C198.421 155.225 199.955 155.949 201.455 156.809C208.163 160.685 212.966 166.938 214.972 174.438L214.955 174.455Z" fill="white"/>
</g>
<defs>
<clipPath id="clip0_24_343">
<rect width="300" height="300" fill="white"/>
</clipPath>
</defs>
</svg>
