<svg width="694" height="863" viewBox="0 0 694 863" fill="none" xmlns="http://www.w3.org/2000/svg">
<g clip-path="url(#clip0_11_234)">
<path d="M236.115 846.987C222.912 860.19 201.473 860.19 188.281 846.987C175.122 833.829 175.122 812.357 188.281 799.187C194.69 792.822 203.157 789.288 212.198 789.288C221.238 789.288 229.706 792.822 236.115 799.187C249.273 812.346 249.273 833.818 236.115 846.987Z" fill="#886AAB"/>
<path d="M161.094 738.184C161.094 747.191 157.559 755.692 151.195 762.067C144.786 768.476 136.318 772.011 127.278 772.011C118.237 772.011 109.77 768.476 103.394 762.067C96.9853 755.703 93.4947 747.191 93.4947 738.184C93.4947 729.176 96.9853 720.675 103.394 714.267C109.759 707.902 118.27 704.367 127.278 704.367C136.285 704.367 144.786 707.902 151.195 714.267C157.559 720.675 161.094 729.143 161.094 738.184Z" fill="#886AAB"/>
<path d="M350.777 853.991C345.392 859.375 338.301 862.095 331.253 862.095L311.73 814.9C360.29 766.34 360.29 687.223 311.73 638.673C287.406 614.349 255.506 602.215 223.584 602.215C211.317 602.215 199.05 603.987 187.257 607.566C195.13 589.001 200.339 569.026 202.519 548.248C209.5 547.433 216.525 547.025 223.573 547.025C260.989 547.025 298.428 558.609 329.954 581.744L331.727 583.044C335.129 585.598 338.444 588.252 341.604 591.082C343.135 592.381 344.632 593.703 346.064 595.101C347.66 596.566 349.268 598.096 350.766 599.594C357.207 606.036 363.197 612.984 368.615 620.417C370.828 623.412 372.943 626.451 374.914 629.545C419.653 699.159 411.615 793.131 350.755 853.991H350.777Z" fill="#886AAB"/>
<path d="M174.517 535.838C174.385 538.866 174.142 541.905 173.801 544.933C173.493 548.038 173.085 551.166 172.612 554.304C171.621 560.47 170.299 566.637 168.659 572.77C162.085 597.27 150.666 619.657 135.195 638.872L135.162 638.938C130.625 644.631 125.725 649.982 120.44 655.124C117.367 658.12 114.207 660.983 110.86 663.746C102.821 670.496 94.1003 676.597 84.8287 681.937C57.124 697.948 26.3581 706.129 -4.7822 706.129H-4.84827C-20.4845 706.129 -36.1647 704.081 -51.6688 699.93L-37.354 646.569C-26.6178 649.432 -15.6835 650.896 -4.84827 650.896C16.7231 650.896 38.0522 645.203 57.2341 634.093C62.2113 631.23 66.9131 628.091 71.3728 624.59C74.2688 622.376 77.0326 620.053 79.7194 617.531C91.8871 606.289 101.698 592.723 108.514 577.461V577.395C110.662 572.66 112.467 567.815 113.998 562.816C114.471 561.384 114.879 559.953 115.253 558.455C127.586 512.46 112.39 465.464 79.7855 435.072C100.124 432.551 120.23 427.001 139.005 418.687C163.671 451.81 176.862 493.168 174.506 535.838H174.517Z" fill="#91C03D"/>
<path d="M219.553 298.894C216.79 305.336 213.629 311.634 210.051 317.801C192.366 348.434 166.611 372.726 135.735 388.296C133.004 389.694 130.251 390.95 127.454 392.216C124.591 393.471 121.695 394.704 118.733 395.762C112.908 398.041 106.907 399.99 100.839 401.587C85.3353 405.749 69.589 407.819 53.9858 407.819C44.7913 407.819 35.6187 407.103 26.5233 405.639C19.432 404.549 12.3846 402.985 5.35936 401.003C1.19704 399.847 -2.85516 398.514 -6.9404 397.017C-16.7846 393.438 -26.3976 388.979 -35.6692 383.627C-77.2703 359.567 -107.056 320.796 -119.455 274.383L-66.1268 260.101C-57.5048 292.232 -36.8584 319.111 -8.06357 335.782C-3.0864 338.645 2.0229 341.134 7.23129 343.281C10.6008 344.68 14.0474 345.902 17.516 346.959C29.3753 350.637 41.675 352.509 54.0409 352.509C58.3023 352.509 62.4866 352.299 66.715 351.892C71.8243 351.353 76.9666 350.527 82.0429 349.337C83.5074 348.996 85.038 348.622 86.5025 348.247C132.541 335.881 165.62 299.213 175.64 255.806C187.808 271.993 202.519 286.539 219.531 298.872L219.553 298.894Z" fill="#2F2151"/>
<path d="M5.84381 186.754C1.35115 194.561 -5.94943 200.144 -14.7035 202.5C-32.6631 207.301 -51.2614 196.576 -56.1064 178.616C-60.9074 160.591 -50.1823 141.992 -32.1896 137.18C-29.2606 136.398 -26.2985 136.024 -23.3695 136.024C-17.5445 136.024 -11.7524 137.555 -6.5 140.561C1.30709 145.053 6.88989 152.354 9.2133 161.108C11.5697 169.829 10.3365 178.925 5.84381 186.765V186.754Z" fill="#2F2151"/>
<path d="M101.324 171.426C92.6028 173.738 83.4743 172.549 75.6672 168.056C67.8601 163.487 62.2774 156.23 59.8879 147.509C55.0869 129.483 65.812 110.918 83.8047 106.106C86.7337 105.324 89.6297 104.95 92.5588 104.95C107.446 104.95 121.177 114.937 125.197 129.99C130.031 148.016 119.305 166.548 101.313 171.426H101.324Z" fill="#2F2151"/>
<path d="M378.613 249.321C372.106 264.759 367.404 281.012 364.706 297.804C364.122 301.416 363.682 305.093 363.308 308.672C356.359 309.487 349.334 309.894 342.353 309.894C308.14 309.894 273.928 300.248 244.252 280.934C241.697 279.294 239.176 277.532 236.687 275.726C234.166 273.887 231.677 271.982 229.221 270C224.354 266.047 219.642 261.819 215.149 257.326C196.683 238.86 183.084 217.388 174.363 194.495C171.841 187.855 169.694 181.072 167.987 174.223C166.93 170.027 166.049 165.843 165.3 161.615C155.456 105.732 172.05 46.0388 215.149 2.92908L254.195 42.0086C225.577 70.6273 213.816 109.784 218.926 147.124C219.399 150.735 220.049 154.314 220.897 157.893C224.476 173.771 231.226 189.143 241.136 202.874C244.131 207.07 247.434 211.122 251.046 214.932C252.037 216.055 253.094 217.145 254.184 218.235C278.476 242.494 310.409 254.661 342.331 254.661C354.564 254.661 366.798 252.888 378.58 249.31L378.613 249.321Z" fill="#91C03D"/>
<path d="M377.655 57.6888C371.247 64.0975 362.768 67.6431 353.739 67.6431C344.709 67.6431 336.219 64.0975 329.855 57.6888C316.63 44.5412 316.63 23.1019 329.855 9.88823C336.23 3.51262 344.709 0.0109863 353.739 0.0109863C362.768 0.0109863 371.258 3.52363 377.655 9.88823C390.803 23.1129 390.803 44.5412 377.655 57.6888Z" fill="#91C03D"/>
<path d="M472.42 118.714C472.42 127.743 468.94 136.233 462.542 142.598C456.167 149.007 447.655 152.508 438.659 152.508C429.662 152.508 421.14 148.995 414.742 142.598C408.366 136.222 404.832 127.743 404.832 118.714C404.832 109.685 408.377 101.239 414.742 94.7973C421.151 88.4547 429.596 84.92 438.659 84.92C447.721 84.92 456.178 88.4657 462.542 94.7973C468.951 101.239 472.42 109.685 472.42 118.714Z" fill="#91C03D"/>
<path d="M617.572 156.946L603.29 210.34C592.521 207.444 581.653 206.013 570.818 206.013C549.246 206.013 527.917 211.706 508.702 222.739C503.725 225.635 499.023 228.773 494.564 232.275C491.668 234.488 488.904 236.845 486.217 239.333C474.016 250.609 464.238 264.142 457.455 279.404V279.437C455.275 284.172 453.436 289.083 451.938 294.126H451.905C451.465 295.558 451.058 296.989 450.639 298.454C442.017 330.585 446.444 364.181 463.115 393.042C469.347 403.877 477.055 413.556 485.975 421.804C465.604 424.325 445.497 429.875 426.755 438.233C422.593 432.65 418.75 426.781 415.237 420.647C397.553 389.981 389.405 355.603 391.387 321.082C391.552 318.01 391.794 314.982 392.102 311.954C392.444 308.848 392.851 305.721 393.325 302.583H393.358C394.349 296.416 395.637 290.283 397.278 284.15C403.852 259.649 415.237 237.296 430.664 218.081C430.664 218.015 430.73 218.015 430.73 218.015C435.267 212.322 440.2 206.872 445.486 201.795C448.547 198.8 451.718 195.937 455.022 193.173H455.055C463.093 186.39 471.781 180.29 481.086 174.905C508.79 158.928 539.556 150.779 570.73 150.779C586.333 150.779 602.079 152.828 617.55 156.946H617.572Z" fill="#886AAB"/>
<path d="M692.791 301.151C687.935 319.166 669.337 329.88 651.355 325.068C633.374 320.256 622.66 301.658 627.472 283.676C629.806 274.944 635.389 267.643 643.24 263.14C651.047 258.636 660.131 257.436 668.863 259.759C686.878 264.571 697.592 283.17 692.78 301.151H692.791Z" fill="#886AAB"/>
<path d="M661.695 417.135C656.883 435.149 638.285 445.863 620.303 441.051C602.288 436.239 591.563 417.641 596.386 399.66C598.721 390.927 604.347 383.66 612.155 379.123C619.995 374.62 629.09 373.419 637.822 375.743C646.521 378.11 653.822 383.66 658.325 391.511C662.873 399.318 664.029 408.436 661.706 417.135H661.695Z" fill="#886AAB"/>
<path d="M598.093 719.707C589.394 722.041 580.266 720.874 572.47 716.326C564.629 711.822 559.036 704.522 556.701 695.823C554.367 687.091 555.578 677.962 560.082 670.155C564.585 662.348 571.886 656.754 580.618 654.387C583.525 653.605 586.443 653.264 589.35 653.264C604.259 653.264 617.969 663.207 622.01 678.304C626.822 696.318 616.108 714.884 598.093 719.696V719.707Z" fill="#91C03D"/>
<path d="M482.099 750.803C464.084 755.582 445.519 744.901 440.707 726.886C435.895 708.871 446.609 690.306 464.591 685.494C473.323 683.16 482.451 684.327 490.258 688.874C498.065 693.378 503.659 700.679 506.027 709.378C510.838 727.392 500.124 745.958 482.11 750.814L482.099 750.803Z" fill="#91C03D"/>
<path d="M685.38 582.493L632.019 596.775C623.397 564.611 602.784 537.765 573.923 521.127C568.946 518.264 563.87 515.775 558.694 513.628C555.248 512.229 551.845 511.007 548.332 509.95C536.506 506.206 524.239 504.356 511.841 504.356C507.612 504.356 503.395 504.598 499.166 505.006H499.1C493.958 505.556 488.882 506.404 483.728 507.56C482.297 507.935 480.832 508.276 479.368 508.651C433.472 520.95 400.416 557.508 390.297 600.893C378.03 584.673 363.341 570.293 346.449 558.026C349.213 551.584 352.307 545.253 355.853 539.119C373.57 508.485 399.227 484.293 430.07 468.69C432.801 467.325 435.553 466.003 438.35 464.737C441.213 463.471 444.142 462.248 447.071 461.191C452.929 458.912 458.964 456.93 465.097 455.333C480.601 451.171 496.303 449.101 511.918 449.101C521.156 449.101 530.285 449.817 539.347 451.281C546.538 452.371 553.585 453.902 560.577 455.917C564.695 457.073 568.825 458.405 572.844 459.903C582.721 463.482 592.301 467.941 601.606 473.293C643.174 497.276 672.96 536.091 685.392 582.493H685.38Z" fill="#91C03D"/>
</g>
<defs>
<clipPath id="clip0_11_234">
<rect width="821.947" height="862.095" fill="white" transform="translate(-128)"/>
</clipPath>
</defs>
</svg>
